<svg width="82" height="82" viewBox="0 0 82 82" fill="none" xmlns="http://www.w3.org/2000/svg">
<circle cx="41" cy="41" r="41" fill="#ADFF00"/>
<path d="M48.3386 7.82391C48.3148 7.67487 48.2739 7.53824 48.2159 7.414C48.1595 7.28858 48.0858 7.17767 47.9946 7.08126C47.9049 6.98507 47.7981 6.90559 47.6743 6.84284C47.5505 6.78008 47.4107 6.73637 47.255 6.71171C46.9996 6.67126 46.757 6.70042 46.5271 6.79919C46.2971 6.89796 46.1001 7.06594 45.936 7.30313C45.7719 7.54031 45.6602 7.8455 45.6011 8.21869C45.542 8.59188 45.5546 8.91673 45.6388 9.19325C45.723 9.46977 45.8612 9.69086 46.0536 9.85652C46.246 10.0222 46.4754 10.1261 46.742 10.1683C46.9889 10.2074 47.2147 10.1893 47.4194 10.1138C47.6257 10.0372 47.7968 9.91042 47.9326 9.73348C48.0702 9.55535 48.1598 9.33441 48.2016 9.07066L48.3562 9.12966L47.0598 8.92433L47.1332 8.46135L48.7746 8.72135L48.7013 9.18432C48.6451 9.53927 48.5204 9.83593 48.3274 10.0743C48.1357 10.3129 47.8958 10.4834 47.6078 10.5859C47.3214 10.6872 47.007 10.7108 46.6647 10.6566C46.2831 10.5961 45.962 10.4532 45.7014 10.2279C45.4422 10.0027 45.2582 9.71184 45.1493 9.35518C45.0418 8.99875 45.0241 8.59325 45.0961 8.13869C45.1501 7.79777 45.2442 7.49845 45.3785 7.24071C45.5145 6.9818 45.6818 6.76958 45.8806 6.60404C46.0794 6.4385 46.302 6.32274 46.5483 6.25677C46.7946 6.19079 47.0559 6.1797 47.3323 6.22347C47.5596 6.25947 47.766 6.3274 47.9515 6.42726C48.1387 6.52593 48.2995 6.64992 48.4341 6.79923C48.5702 6.94736 48.6766 7.11593 48.7531 7.30493C48.8298 7.49254 48.8712 7.69397 48.8774 7.90924L48.3386 7.82391Z" fill="black"/>
<path d="M50.9769 11.9058C50.677 11.8083 50.4398 11.6581 50.2653 11.455C50.0926 11.251 49.9863 11.0104 49.9465 10.7331C49.9085 10.4549 49.9412 10.1564 50.0448 9.83755C50.1484 9.51873 50.2978 9.25661 50.493 9.05119C50.69 8.84486 50.9153 8.70749 51.1691 8.63909C51.4246 8.56977 51.6928 8.58076 51.9738 8.67206C52.1359 8.72473 52.2873 8.80377 52.4278 8.90916C52.5683 9.01456 52.6836 9.14912 52.7738 9.31284C52.8644 9.47521 52.916 9.6682 52.9284 9.89181C52.9409 10.1154 52.9 10.3724 52.8056 10.6629L52.7397 10.8655L50.3405 10.086L50.4748 9.67258L52.3877 10.2941C52.4448 10.1185 52.4606 9.95038 52.4351 9.78976C52.411 9.62958 52.3477 9.48879 52.2453 9.36738C52.1442 9.24642 52.0072 9.15784 51.8342 9.10166C51.6438 9.03977 51.4636 9.0335 51.2937 9.08285C51.1256 9.13129 50.9801 9.21842 50.8571 9.34423C50.734 9.47004 50.6446 9.61873 50.5889 9.7903L50.4994 10.0659C50.423 10.301 50.3988 10.5134 50.4267 10.7032C50.4564 10.8921 50.5304 11.0528 50.6487 11.1853C50.7674 11.3164 50.9233 11.4134 51.1165 11.4762C51.2421 11.517 51.3613 11.5363 51.474 11.5341C51.5886 11.531 51.6946 11.5057 51.7922 11.4583C51.8902 11.4094 51.977 11.3376 52.0526 11.2427L52.4725 11.5225C52.373 11.6634 52.2465 11.7746 52.093 11.8562C51.94 11.9364 51.7683 11.9822 51.5779 11.9935C51.388 12.0035 51.1876 11.9743 50.9769 11.9058Z" fill="black"/>
<path d="M57.0397 11.0229L56.8462 11.4026L55.335 10.6326L55.5285 10.2529L57.0397 11.0229ZM56.3249 9.77872L56.7729 10.007L55.3568 12.7863C55.2923 12.9129 55.2623 13.0172 55.2667 13.0991C55.2731 13.1805 55.2999 13.2468 55.3472 13.298C55.3963 13.3485 55.4538 13.3906 55.5196 13.4241C55.569 13.4493 55.6108 13.4674 55.645 13.4784C55.6799 13.4882 55.7078 13.496 55.7287 13.5019L55.6147 13.9508C55.5786 13.9467 55.5304 13.9365 55.4701 13.9202C55.4093 13.9051 55.3371 13.8763 55.2535 13.8337C55.127 13.7692 55.0168 13.6788 54.923 13.5625C54.8305 13.4468 54.7728 13.313 54.7498 13.161C54.7281 13.0096 54.7604 12.8491 54.8468 12.6795L56.3249 9.77872Z" fill="black"/>
<path d="M62.1433 19.009L64.4575 16.6948L64.8131 17.0504L62.4989 19.3646L62.1433 19.009ZM65.024 16.4899C64.9547 16.4206 64.9185 16.3372 64.9155 16.2398C64.9135 16.1434 64.9456 16.062 65.0119 15.9957C65.0782 15.9295 65.1596 15.8973 65.256 15.8993C65.3534 15.9023 65.4368 15.9385 65.5061 16.0078C65.5754 16.0771 65.6111 16.16 65.6131 16.2564C65.6161 16.3538 65.5845 16.4357 65.5182 16.502C65.4519 16.5683 65.37 16.5999 65.2726 16.5969C65.1762 16.5949 65.0933 16.5592 65.024 16.4899Z" fill="black"/>
<path d="M66.92 21.6242L65.3272 22.7814L65.0316 22.3746L67.6793 20.451L67.9649 20.844L67.5512 21.1446L67.5762 21.179C67.7558 21.1434 67.9322 21.1591 68.1057 21.2263C68.2803 21.2926 68.4402 21.4257 68.5855 21.6257C68.7157 21.8049 68.7929 21.9885 68.817 22.1764C68.8423 22.3634 68.808 22.5482 68.714 22.7306C68.6212 22.9121 68.4622 23.0847 68.2369 23.2484L66.5545 24.4707L66.259 24.0639L67.9138 22.8616C68.1218 22.7105 68.2446 22.5388 68.2822 22.3464C68.3209 22.1532 68.2718 21.9624 68.1349 21.7739C68.0405 21.6441 67.928 21.5485 67.7974 21.4871C67.6676 21.4269 67.5274 21.4067 67.3768 21.4266C67.2262 21.4465 67.0739 21.5123 66.92 21.6242Z" fill="black"/>
<path d="M73.0836 29.4759L73.5294 29.3311L74.5407 32.4436L74.0949 32.5885L73.6709 31.2835L69.9666 32.4871L69.8033 31.9845L73.5076 30.7809L73.0836 29.4759Z" fill="black"/>
<path d="M70.7279 36.8103C70.6817 36.5185 70.7106 36.2514 70.8146 36.0092C70.9188 35.7683 71.086 35.5664 71.3162 35.4033C71.5466 35.2417 71.8288 35.1345 72.1627 35.0816C72.4994 35.0283 72.803 35.0427 73.0734 35.125C73.3441 35.2087 73.5662 35.349 73.7398 35.5458C73.9136 35.7441 74.0236 35.9892 74.0698 36.281C74.116 36.5728 74.087 36.8391 73.9828 37.08C73.8788 37.3223 73.7109 37.5243 73.4791 37.6861C73.2475 37.8494 72.9633 37.9577 72.6266 38.011C72.2927 38.0639 71.9911 38.0484 71.7218 37.9645C71.4528 37.882 71.2314 37.7416 71.0576 37.5433C70.884 37.3464 70.7741 37.1021 70.7279 36.8103ZM71.1741 36.7396C71.2092 36.9613 71.2949 37.1347 71.4312 37.2598C71.5675 37.3849 71.7337 37.4671 71.9298 37.5066C72.1258 37.546 72.3319 37.5486 72.548 37.5143C72.764 37.4801 72.9599 37.4139 73.1356 37.3156C73.3113 37.2173 73.4454 37.0875 73.5377 36.9261C73.6301 36.7648 73.6588 36.5733 73.6236 36.3516C73.5885 36.13 73.5021 35.9567 73.3644 35.8318C73.2267 35.7069 73.0591 35.6249 72.8616 35.5857C72.6641 35.5465 72.4574 35.544 72.2413 35.5782C72.0253 35.6125 71.8301 35.6786 71.6558 35.7767C71.4815 35.8748 71.3488 36.0044 71.2579 36.1655C71.1669 36.3266 71.139 36.5179 71.1741 36.7396Z" fill="black"/>
<path d="M72.3381 42.3172L74.2727 42.3172L74.2727 42.82L71 42.82L71 42.3172L71.554 42.3172L71.554 42.2831C71.3878 42.2064 71.2465 42.0871 71.13 41.9251C71.0149 41.7632 70.9574 41.5586 70.9574 41.3115C70.9574 41.1069 71.0021 40.9251 71.0916 40.766C71.1825 40.6069 71.3189 40.4819 71.5007 40.391C71.6839 40.3001 71.9148 40.2547 72.1932 40.2547L74.2727 40.2547L74.2727 40.7575L72.2273 40.7575C71.9886 40.7575 71.7983 40.8243 71.6563 40.9578C71.5142 41.0927 71.4432 41.2646 71.4432 41.4734C71.4432 41.5984 71.4751 41.7255 71.5391 41.8548C71.603 41.9855 71.701 42.0949 71.8331 42.1829C71.9652 42.2724 72.1335 42.3172 72.3381 42.3172Z" fill="black"/>
<path d="M70.3867 46.3316C70.4347 46.0286 70.5476 45.779 70.7253 45.5828C70.9031 45.3866 71.1269 45.2495 71.3967 45.1714C71.6665 45.0933 71.9627 45.0798 72.2854 45.1309C72.6137 45.1829 72.8939 45.2891 73.1259 45.4496C73.3591 45.6116 73.5293 45.8126 73.6366 46.0525C73.745 46.294 73.7761 46.5607 73.7299 46.8525C73.6939 47.0798 73.6194 47.278 73.5063 47.447C73.3932 47.6161 73.2517 47.7468 73.0818 47.8393C72.9118 47.9317 72.7236 47.976 72.5171 47.972L72.5958 47.4754C72.7491 47.4608 72.8929 47.3973 73.0272 47.2849C73.1627 47.174 73.2478 47.0091 73.2824 46.7903C73.3131 46.5967 73.2895 46.4189 73.2116 46.257C73.1348 46.0967 73.0117 45.9615 72.8422 45.8512C72.6739 45.7426 72.4677 45.6689 72.2236 45.6303C71.9739 45.5907 71.7502 45.5955 71.5525 45.6448C71.3547 45.6954 71.1931 45.7849 71.0678 45.9132C70.9423 46.0428 70.864 46.2059 70.8328 46.4023C70.8124 46.5314 70.8163 46.6521 70.8445 46.7644C70.8728 46.8768 70.9232 46.9761 70.9958 47.0623C71.0684 47.1486 71.1612 47.2165 71.2742 47.2661L71.1955 47.7627C71.0092 47.7044 70.8483 47.6078 70.7129 47.4727C70.5787 47.3393 70.4811 47.175 70.42 46.9798C70.36 46.7862 70.3489 46.5702 70.3867 46.3316Z" fill="black"/>
<path d="M71.3001 50.7781L69.4277 50.1697L69.5831 49.6915L73.7331 51.0399L73.5778 51.5182L72.0539 51.023L72.0407 51.0636C72.1778 51.1888 72.2699 51.3397 72.3171 51.5163C72.3651 51.6947 72.3494 51.9062 72.27 52.1507C72.2011 52.3628 72.0982 52.5347 71.9613 52.6665C71.8257 52.7987 71.6565 52.8804 71.4537 52.9115C71.2518 52.9445 71.0172 52.9175 70.7497 52.8306L68.7719 52.188L68.9273 51.7098L70.8726 52.3419C71.1199 52.4222 71.3319 52.4201 71.5087 52.3357C71.6864 52.253 71.8119 52.0989 71.8852 51.8733C71.9361 51.7166 71.9486 51.5653 71.9228 51.4196C71.8966 51.2751 71.8316 51.1465 71.7279 51.0336C71.6237 50.9221 71.4811 50.8369 71.3001 50.7781Z" fill="black"/>
<path d="M66.0559 62.3181C66.1995 62.3645 66.3398 62.3901 66.4769 62.3948C66.6142 62.4016 66.7465 62.3862 66.8738 62.3487C67.0002 62.3124 67.1195 62.2534 67.2316 62.1716C67.3438 62.0897 67.4462 61.985 67.5388 61.8575C67.6908 61.6483 67.775 61.4189 67.7914 61.1692C67.8077 60.9195 67.7475 60.6677 67.6107 60.4138C67.4739 60.1598 67.2526 59.9218 66.9469 59.6997C66.6412 59.4777 66.3461 59.3414 66.0615 59.2908C65.7769 59.2403 65.5171 59.2632 65.2822 59.3594C65.0473 59.4555 64.8505 59.6128 64.6918 59.8312C64.5449 60.0334 64.4586 60.2428 64.4329 60.4594C64.4075 60.678 64.4428 60.888 64.5388 61.0894C64.6351 61.2928 64.7912 61.473 65.0073 61.63L64.8845 61.7409L65.656 60.6791L66.0352 60.9546L65.0583 62.2992L64.6791 62.0236C64.3884 61.8124 64.1806 61.5667 64.0559 61.2864C63.9304 61.0073 63.8873 60.7162 63.9267 60.413C63.9665 60.1118 64.0882 59.821 64.2919 59.5406C64.519 59.228 64.7921 59.0068 65.1112 58.8769C65.4295 58.7482 65.7722 58.7163 66.1394 58.7812C66.5058 58.8473 66.8752 59.0155 67.2475 59.286C67.5268 59.4889 67.7507 59.7087 67.9194 59.9454C68.0884 60.184 68.2015 60.4295 68.2587 60.6818C68.316 60.9341 68.3181 61.1849 68.265 61.4343C68.212 61.6837 68.1032 61.9216 67.9388 62.148C67.8035 62.3342 67.6493 62.4873 67.4761 62.6072C67.3032 62.7292 67.1197 62.8162 66.9256 62.8683C66.7318 62.9224 66.5333 62.9406 66.3302 62.923C66.1282 62.9062 65.9299 62.8516 65.7353 62.7594L66.0559 62.3181Z" fill="black"/>
<path d="M61.2221 62.8159C61.445 62.5929 61.6866 62.4498 61.9467 62.3865C62.2069 62.3252 62.4695 62.3398 62.7347 62.4302C62.9999 62.5226 63.251 62.6873 63.488 62.9243C63.7251 63.1614 63.8908 63.4135 63.9852 63.6807C64.0796 63.9499 64.0997 64.213 64.0455 64.4701C63.9912 64.7293 63.8596 64.9633 63.6507 65.1722C63.5302 65.2927 63.3911 65.3917 63.2334 65.469C63.0757 65.5464 62.9034 65.588 62.7166 65.5941C62.5308 65.6011 62.3354 65.5594 62.1305 65.469C61.9256 65.3786 61.7152 65.2254 61.4993 65.0095L61.3486 64.8588L63.1324 63.075L63.4398 63.3824L62.0175 64.8046C62.1481 64.9352 62.2907 65.0256 62.4454 65.0758C62.5991 65.127 62.7533 65.1346 62.908 65.0984C63.0616 65.0632 63.2028 64.9814 63.3313 64.8528C63.4729 64.7112 63.5603 64.5535 63.5935 64.3797C63.6266 64.208 63.6151 64.0387 63.5588 63.872C63.5026 63.7053 63.4107 63.5581 63.2831 63.4306L63.0782 63.2257C62.9034 63.0509 62.7252 62.9329 62.5434 62.8716C62.3616 62.8123 62.1848 62.8053 62.013 62.8505C61.8423 62.8967 61.6851 62.9916 61.5415 63.1353C61.448 63.2287 61.3767 63.3261 61.3275 63.4275C61.2783 63.531 61.2527 63.637 61.2507 63.7454C61.2497 63.8549 61.2743 63.9649 61.3245 64.0754L60.8846 64.3225C60.8042 64.1698 60.7625 64.0066 60.7595 63.8328C60.7575 63.6601 60.7947 63.4863 60.871 63.3115C60.9484 63.1378 61.0654 62.9725 61.2221 62.8159Z" fill="black"/>
<path d="M59.254 68.619L59.0035 68.2742L60.3756 67.2773L60.6261 67.6221L59.254 68.619ZM60.6871 68.547L60.2803 68.8425L58.4468 66.3189C58.3633 66.204 58.284 66.1299 58.2089 66.0967C58.1335 66.0654 58.0623 66.0592 57.9953 66.0781C57.9279 66.099 57.8643 66.1311 57.8046 66.1745C57.7598 66.2071 57.7247 66.2361 57.6993 66.2616C57.6747 66.2882 57.6551 66.3095 57.6403 66.3255L57.2921 66.0201C57.3122 65.9898 57.3431 65.9514 57.385 65.9052C57.4261 65.8578 57.4846 65.8066 57.5604 65.7514C57.6753 65.668 57.8059 65.6108 57.9521 65.5801C58.0972 65.5502 58.2427 65.5595 58.3885 65.608C58.5333 65.6574 58.6616 65.7591 58.7734 65.9131L60.6871 68.547Z" fill="black"/>
<path d="M49.8215 69.5409L50.8328 72.6534L50.3546 72.8088L49.3432 69.6962L49.8215 69.5409ZM50.7582 73.2512C50.8514 73.2209 50.9421 73.2265 51.0303 73.2681C51.1171 73.3101 51.175 73.3756 51.204 73.4648C51.2329 73.5539 51.2246 73.641 51.1791 73.726C51.1322 73.8115 51.0621 73.8693 50.9689 73.8996C50.8757 73.9299 50.7856 73.9241 50.6988 73.8821C50.6106 73.8405 50.5521 73.7752 50.5231 73.686C50.4941 73.5969 50.5031 73.5096 50.55 73.4241C50.5956 73.3391 50.665 73.2815 50.7582 73.2512Z" fill="black"/>
<path d="M45.3244 72.6095L45.0164 70.665L45.513 70.5863L46.025 73.8187L45.5452 73.8947L45.4652 73.3897L45.4231 73.3963C45.3734 73.5725 45.2792 73.7226 45.1407 73.8466C45.0023 73.9721 44.8111 74.0542 44.567 74.0928C44.3481 74.1275 44.1495 74.1129 43.9712 74.0491C43.793 73.9867 43.644 73.8723 43.5241 73.7057C43.4045 73.5406 43.3229 73.3205 43.2794 73.0456L42.954 70.9916L43.4507 70.913L43.7707 72.9332C43.8109 73.1872 43.9082 73.3745 44.0625 73.4954C44.217 73.6176 44.4094 73.6605 44.6394 73.624C44.798 73.5989 44.9342 73.5421 45.0482 73.4536C45.1608 73.3653 45.2424 73.2495 45.2931 73.1063C45.3437 72.9631 45.3542 72.7975 45.3244 72.6095Z" fill="black"/>
<path d="M35.5314 74.5366L35.4581 74.9996L32.2256 74.4876L32.2989 74.0247L33.6542 74.2393L34.2635 70.3924L34.7854 70.475L34.1761 74.322L35.5314 74.5366Z" fill="black"/>
<path d="M30.0636 69.1074C30.3446 69.1987 30.5694 69.3457 30.738 69.5483C30.9053 69.7505 31.0093 69.9912 31.0501 70.2703C31.0895 70.5489 31.057 70.849 30.9525 71.1705C30.8471 71.4948 30.6964 71.7587 30.5003 71.9623C30.3029 72.1655 30.077 72.2997 29.8228 72.365C29.5673 72.4298 29.299 72.4166 29.018 72.3253C28.737 72.234 28.5129 72.0873 28.3456 71.885C28.177 71.6824 28.0732 71.4411 28.0342 71.1611C27.9939 70.8806 28.0264 70.5783 28.1317 70.2541C28.2362 69.9325 28.3869 69.6708 28.584 69.469C28.7796 69.2667 29.0052 69.1332 29.2608 69.0683C29.515 69.0031 29.7826 69.0161 30.0636 69.1074ZM29.924 69.537C29.7105 69.4676 29.5171 69.4653 29.3438 69.5299C29.1704 69.5946 29.0217 69.7053 28.8976 69.8621C28.7734 70.019 28.6776 70.2014 28.61 70.4094C28.5424 70.6175 28.5125 70.8221 28.5203 71.0233C28.5281 71.2245 28.5829 71.4028 28.6847 71.5584C28.7865 71.7139 28.9442 71.8264 29.1576 71.8957C29.3711 71.9651 29.5647 71.9667 29.7385 71.9007C29.9122 71.8347 30.0614 71.7226 30.186 71.5645C30.3106 71.4063 30.4067 71.2232 30.4743 71.0152C30.5419 70.8071 30.5715 70.6032 30.5633 70.4033C30.555 70.2035 30.4998 70.0265 30.3975 69.8723C30.2953 69.7181 30.1374 69.6063 29.924 69.537Z" fill="black"/>
<path d="M24.4273 68.0432L23.549 69.767L23.1009 69.5387L24.5867 66.6227L25.0348 66.851L24.7833 67.3445L24.8136 67.36C24.9574 67.2468 25.1279 67.175 25.3251 67.1447C25.5216 67.1157 25.73 67.1573 25.9502 67.2696C26.1324 67.3624 26.2741 67.4848 26.3752 67.6368C26.4757 67.79 26.5252 67.9683 26.5236 68.1715C26.5215 68.3761 26.4572 68.6024 26.3308 68.8504L25.3867 70.7033L24.9386 70.475L25.8673 68.6525C25.9756 68.4399 26.0025 68.24 25.948 68.0528C25.8923 67.865 25.7714 67.7237 25.5854 67.6289C25.474 67.5721 25.3462 67.5429 25.202 67.5412C25.0565 67.5388 24.9146 67.5765 24.7761 67.6542C24.6364 67.7313 24.5202 67.8609 24.4273 68.0432Z" fill="black"/>
<path d="M21.736 64.4826C21.9842 64.6629 22.1554 64.8768 22.2495 65.1243C22.3436 65.3717 22.3642 65.6334 22.3113 65.9092C22.2583 66.1851 22.1359 66.4551 21.9438 66.7194C21.7485 66.9884 21.5266 67.1898 21.2784 67.3237C21.0281 67.4579 20.7717 67.5183 20.5093 67.505C20.2449 67.4919 19.9931 67.3986 19.7541 67.2249C19.5679 67.0897 19.4252 66.9333 19.3259 66.7558C19.2266 66.5783 19.1744 66.3929 19.1691 66.1995C19.1639 66.006 19.21 65.8182 19.3072 65.6361L19.714 65.9316C19.6574 66.0748 19.6487 66.2318 19.6879 66.4025C19.7252 66.5736 19.8334 66.7242 20.0127 66.8545C20.1713 66.9697 20.3404 67.0293 20.52 67.0334C20.6977 67.0378 20.8741 66.9896 21.0493 66.8886C21.2225 66.7879 21.3817 66.6376 21.527 66.4377C21.6756 66.2331 21.7729 66.0316 21.8187 65.8332C21.8634 65.6339 21.8571 65.4493 21.7997 65.2794C21.7411 65.1087 21.6314 64.9649 21.4705 64.848C21.3648 64.7712 21.2554 64.7199 21.1425 64.694C21.0296 64.6682 20.9182 64.668 20.8084 64.6936C20.6985 64.7191 20.5959 64.7709 20.5005 64.8491L20.0937 64.5535C20.2302 64.414 20.3894 64.3145 20.5712 64.2552C20.751 64.1962 20.9417 64.1838 21.1434 64.218C21.3431 64.2524 21.5406 64.3406 21.736 64.4826Z" fill="black"/>
<path d="M17.359 63.2771L18.7511 61.885L19.1067 62.2405L16.0211 65.3261L15.6656 64.9705L16.7985 63.8375L16.7684 63.8074C16.5946 63.8727 16.4184 63.8863 16.2396 63.8481C16.0588 63.8099 15.8775 63.6999 15.6957 63.5181C15.538 63.3604 15.4315 63.1907 15.3763 63.0089C15.32 62.8281 15.3241 62.6403 15.3883 62.4454C15.4506 62.2506 15.5812 62.0537 15.7801 61.8548L17.2505 60.3844L17.6061 60.7399L16.1597 62.1863C15.9759 62.3701 15.8815 62.5599 15.8765 62.7558C15.8695 62.9517 15.9498 63.1334 16.1175 63.3012C16.2341 63.4177 16.3631 63.4976 16.5047 63.5407C16.6454 63.5829 16.7895 63.5834 16.9371 63.5422C17.0838 63.5001 17.2244 63.4117 17.359 63.2771Z" fill="black"/>
<path d="M9.4578 53.3653C9.35125 53.4722 9.26476 53.5857 9.19833 53.7056C9.12999 53.8249 9.08361 53.9498 9.05919 54.0802C9.03413 54.2093 9.0326 54.3424 9.0546 54.4795C9.07661 54.6165 9.1234 54.7553 9.19498 54.8958C9.31235 55.1261 9.47856 55.3053 9.69362 55.4332C9.90867 55.5612 10.1604 55.6219 10.4487 55.6152C10.7371 55.6086 11.0496 55.5195 11.3863 55.348C11.7229 55.1764 11.9784 54.9753 12.1526 54.7447C12.3268 54.514 12.4244 54.2722 12.4453 54.0192C12.4663 53.7662 12.4155 53.5195 12.293 53.279C12.1795 53.0563 12.032 52.8843 11.8507 52.763C11.6675 52.6412 11.4643 52.5773 11.2413 52.5714C11.0164 52.5648 10.7849 52.6222 10.547 52.7434L10.5039 52.5836L11.0997 53.7531L10.6821 53.9659L9.92756 52.4851L10.3452 52.2723C10.6654 52.1091 10.9787 52.0356 11.285 52.0517C11.5907 52.0665 11.8696 52.1603 12.1219 52.3331C12.3722 52.5053 12.5761 52.7458 12.7334 53.0546C12.9088 53.3988 12.9819 53.7426 12.9528 54.0859C12.923 54.4279 12.7958 54.7477 12.5713 55.0455C12.3461 55.342 12.0285 55.5947 11.6184 55.8036C11.3109 55.9603 11.0134 56.0601 10.7259 56.1029C10.4366 56.1451 10.1665 56.1345 9.91572 56.0709C9.66494 56.0074 9.44048 55.8954 9.24233 55.7349C9.04418 55.5744 8.88158 55.3695 8.75454 55.1202C8.65007 54.9152 8.5837 54.7083 8.55544 54.4995C8.52526 54.2901 8.53102 54.087 8.57273 53.8904C8.61252 53.6932 8.6864 53.5081 8.79435 53.3351C8.90104 53.1628 9.03964 53.0109 9.21016 52.8793L9.4578 53.3653Z" fill="black"/>
<path d="M11.2089 48.8318C11.3063 49.1317 11.3242 49.412 11.2624 49.6725C11.1989 49.9321 11.0667 50.1595 10.8658 50.3547C10.6631 50.549 10.4023 50.698 10.0835 50.8016C9.76466 50.9052 9.46479 50.9384 9.18387 50.9012C8.90116 50.8631 8.65757 50.7615 8.45309 50.5965C8.24682 50.4305 8.09803 50.207 8.00673 49.926C7.95406 49.7639 7.92906 49.5951 7.93174 49.4194C7.93442 49.2438 7.97549 49.0714 8.05493 48.9022C8.13303 48.7335 8.25886 48.5783 8.43242 48.4368C8.60599 48.2953 8.838 48.1773 9.12845 48.0829L9.33109 48.0171L10.1107 50.4164L9.69727 50.5507L9.07573 48.6378C8.9001 48.6948 8.75481 48.7809 8.63984 48.8959C8.52443 49.0096 8.44772 49.1435 8.40972 49.2977C8.37127 49.4506 8.38014 49.6135 8.43633 49.7864C8.49822 49.9769 8.59905 50.1264 8.73883 50.2348C8.87682 50.3423 9.03286 50.4089 9.20695 50.4344C9.38105 50.46 9.55388 50.4449 9.72545 50.3892L10.001 50.2996C10.2361 50.2233 10.4222 50.118 10.5593 49.9838C10.6947 49.8487 10.7812 49.6944 10.8189 49.5209C10.8552 49.3477 10.842 49.1646 10.7793 48.9714C10.7384 48.8458 10.684 48.738 10.616 48.6481C10.5461 48.5573 10.4633 48.4864 10.3676 48.4353C10.2705 48.3847 10.1613 48.3567 10.0401 48.3513L10.0197 47.8471C10.1922 47.8449 10.3565 47.8818 10.5127 47.958C10.6676 48.0347 10.8055 48.1467 10.9266 48.294C11.0463 48.4418 11.1404 48.6211 11.2089 48.8318Z" fill="black"/>
<path d="M6.93225 44.4454L7.35314 44.3788L7.61846 46.0539L7.19757 46.1206L6.93225 44.4454ZM6.3458 45.755L6.26714 45.2584L9.34805 44.7704C9.48835 44.7482 9.59035 44.7112 9.65405 44.6594C9.71613 44.6064 9.75398 44.5457 9.76761 44.4774C9.77962 44.4079 9.77984 44.3367 9.76829 44.2638C9.75962 44.209 9.7497 44.1646 9.73854 44.1304C9.72597 44.0964 9.71591 44.0693 9.70837 44.0489L10.1385 43.8772C10.1565 43.9089 10.1765 43.9539 10.1987 44.0122C10.2223 44.0703 10.2414 44.1457 10.2561 44.2383C10.2783 44.3786 10.2699 44.5208 10.2309 44.6651C10.1917 44.8079 10.1174 44.9333 10.0079 45.0412C9.89824 45.1478 9.7494 45.2159 9.5614 45.2457L6.3458 45.755Z" fill="black"/>
<path d="M10.3927 35.6222L7.16022 35.1103L7.23889 34.6136L10.4713 35.1256L10.3927 35.6222ZM6.66148 34.7724C6.64615 34.8692 6.59996 34.9475 6.52291 35.0072C6.44608 35.0655 6.36137 35.0873 6.26877 35.0726C6.17618 35.058 6.10235 35.011 6.0473 34.9318C5.99247 34.8512 5.97273 34.7625 5.98806 34.6657C6.00339 34.5689 6.04947 34.4914 6.1263 34.4331C6.20335 34.3734 6.28817 34.3509 6.38077 34.3655C6.47336 34.3802 6.54708 34.4278 6.6019 34.5084C6.65696 34.5876 6.67681 34.6756 6.66148 34.7724Z" fill="black"/>
<path d="M9.69991 30.2214L11.5723 30.8298L11.4169 31.308L8.30437 30.2967L8.45449 29.8347L8.94082 29.9927L8.95399 29.9522C8.81964 29.8278 8.72864 29.6758 8.68101 29.496C8.63203 29.3158 8.64572 29.1082 8.7221 28.8731C8.79058 28.6624 8.89372 28.492 9.03154 28.3621C9.168 28.2317 9.33764 28.1509 9.54044 28.1197C9.74189 28.0881 9.97501 28.1153 10.2398 28.2013L12.2176 28.8439L12.0622 29.3221L10.1168 28.6901C9.87231 28.6106 9.66119 28.6122 9.48349 28.6949C9.30443 28.7771 9.17891 28.929 9.10692 29.1505C9.05732 29.3032 9.04609 29.4504 9.07322 29.5921C9.10078 29.7325 9.16687 29.8578 9.27147 29.9679C9.37607 30.0781 9.51889 30.1626 9.69991 30.2214Z" fill="black"/>
<path d="M12.43 20.6196L12.0508 20.3441L13.9745 17.6964L14.3537 17.9719L13.5472 19.082L16.6982 21.3714L16.3876 21.7989L13.2366 19.5095L12.43 20.6196Z" fill="black"/>
<path d="M19.7478 18.2147C19.5389 18.4236 19.3059 18.5572 19.0488 18.6155C18.7926 18.6727 18.531 18.6562 18.2638 18.5658C17.9976 18.4744 17.745 18.3091 17.506 18.0701C17.2649 17.829 17.0982 17.5749 17.0058 17.3077C16.9144 17.0396 16.8973 16.7774 16.9546 16.5213C17.0128 16.2642 17.1464 16.0311 17.3553 15.8222C17.5642 15.6133 17.7967 15.4802 18.0529 15.423C18.31 15.3647 18.5722 15.3818 18.8393 15.4742C19.1075 15.5656 19.3621 15.7318 19.6032 15.9729C19.8422 16.2119 20.007 16.465 20.0974 16.7322C20.1888 16.9984 20.2053 17.26 20.1471 17.5171C20.0898 17.7733 19.9568 18.0058 19.7478 18.2147ZM19.4284 17.8953C19.5871 17.7366 19.677 17.5654 19.6981 17.3816C19.7192 17.1977 19.6881 17.0149 19.6047 16.8331C19.5213 16.6513 19.4023 16.4831 19.2476 16.3284C19.0929 16.1737 18.9242 16.0542 18.7414 15.9699C18.5586 15.8855 18.3748 15.8533 18.19 15.8734C18.0052 15.8935 17.8334 15.9829 17.6747 16.1416C17.516 16.3003 17.4266 16.4721 17.4065 16.6569C17.3865 16.8417 17.4186 17.0255 17.503 17.2083C17.5873 17.3911 17.7069 17.5598 17.8615 17.7145C18.0162 17.8692 18.1845 17.9882 18.3663 18.0716C18.5481 18.155 18.7309 18.1861 18.9147 18.165C19.0985 18.1439 19.2697 18.054 19.4284 17.8953Z" fill="black"/>
<path d="M23.2577 13.674L22.1205 12.1089L22.5273 11.8133L24.451 14.461L24.0442 14.7566L23.7186 14.3084L23.691 14.3284C23.7266 14.508 23.7132 14.6924 23.6506 14.8819C23.5872 15.0701 23.4556 15.2369 23.2556 15.3822C23.0901 15.5024 22.9167 15.5731 22.7354 15.5942C22.5533 15.6141 22.372 15.5773 22.1916 15.4836C22.0103 15.3888 21.8379 15.2288 21.6742 15.0036L20.4519 13.3212L20.8587 13.0256L22.061 14.6804C22.2013 14.8735 22.3672 14.9882 22.5587 15.0247C22.7513 15.0603 22.9321 15.0167 23.1011 14.894C23.2022 14.8205 23.2863 14.7199 23.3533 14.5922C23.4214 14.4637 23.4523 14.3201 23.4459 14.1615C23.4407 14.002 23.3779 13.8395 23.2577 13.674Z" fill="black"/>
<path d="M27.6523 12.8926C27.3789 13.0319 27.1106 13.0873 26.8474 13.0588C26.5842 13.0303 26.3417 12.9299 26.12 12.7575C25.8982 12.5851 25.7132 12.3534 25.5649 12.0623C25.414 11.7661 25.3353 11.477 25.3287 11.195C25.3227 10.9111 25.3852 10.6552 25.5163 10.4275C25.6479 10.1978 25.8454 10.0159 26.1086 9.88172C26.3137 9.77725 26.5178 9.72107 26.721 9.71318C26.9243 9.70528 27.1132 9.74292 27.2879 9.82608C27.4626 9.90924 27.609 10.0355 27.7272 10.2049L27.2792 10.4331C27.1773 10.3177 27.0414 10.2386 26.8714 10.1961C26.7021 10.1517 26.5187 10.1797 26.3213 10.2803C26.1467 10.3693 26.0167 10.4929 25.9315 10.6511C25.847 10.8074 25.8099 10.9865 25.8203 11.1884C25.8314 11.3885 25.893 11.5986 26.0052 11.8188C26.12 12.0441 26.2554 12.2222 26.4114 12.3531C26.5686 12.4835 26.736 12.5616 26.9134 12.5876C27.0921 12.6129 27.2701 12.5804 27.4473 12.4901C27.5637 12.4308 27.6591 12.3567 27.7333 12.2678C27.8076 12.179 27.8583 12.0798 27.8855 11.9703C27.9126 11.8609 27.913 11.7459 27.8866 11.6254L28.3347 11.3971C28.3971 11.5821 28.4134 11.7691 28.3837 11.958C28.3547 12.145 28.2791 12.3205 28.1571 12.4847C28.0357 12.647 27.8675 12.783 27.6523 12.8926Z" fill="black"/>
<path d="M30.7124 9.54075L31.3208 11.4132L30.8425 11.5685L29.4941 7.41846L29.9724 7.26308L30.4675 8.78693L30.508 8.77376C30.5287 8.5893 30.5967 8.42608 30.7119 8.28411C30.8279 8.14035 31.0082 8.02875 31.2528 7.9493C31.4649 7.88039 31.6644 7.86259 31.8515 7.8959C32.0381 7.92787 32.2037 8.01672 32.3481 8.16246C32.4934 8.30641 32.6096 8.51213 32.6965 8.77961L33.3391 10.7574L32.8608 10.9128L32.2288 8.96742C32.1485 8.7202 32.0222 8.54989 31.8499 8.45649C31.6786 8.36131 31.4802 8.35037 31.2545 8.42367C31.0978 8.47459 30.9681 8.55333 30.8653 8.65991C30.7639 8.76605 30.698 8.89425 30.6677 9.0445C30.6387 9.19431 30.6536 9.35973 30.7124 9.54075Z" fill="black"/>
</svg>
