<svg width="657" height="242" viewBox="0 0 657 242" fill="none" xmlns="http://www.w3.org/2000/svg">
<path d="M0.214844 142.016L27.1203 132.199L62.8662 159.464L72.6527 115.585L100.205 105.532L133.574 196.984L103.953 207.793L85.8282 158.121L77.677 202.063L71.4033 204.352L36.1566 176.245L54.2808 225.917L33.5843 233.469L0.214844 142.016Z" fill="black"/>
<path d="M305.501 241.639L304.271 150.977L655.764 144.828L657.001 236.039L305.501 241.639Z" fill="#FFDECB"/>
<path d="M384 221.214L381.066 222.366V228.234L384 229.386V231.024L371.76 226.218V224.31L384 219.486V221.214ZM374.442 225.66L379.734 227.73V222.87L374.442 224.94L373.362 225.3L374.442 225.66Z" fill="black"/>
<path d="M384 215.389H371.76V211.393C371.76 207.595 374.064 205.219 377.898 205.219C381.732 205.219 384 207.595 384 211.393V215.389ZM382.65 211.393C382.65 208.585 380.886 206.911 377.898 206.911C374.874 206.911 373.11 208.585 373.11 211.393V213.733H382.65V211.393Z" fill="black"/>
<path d="M373.164 203.342H371.04V201.758H373.164V203.342ZM384 203.342H374.442V201.758H384V203.342Z" fill="black"/>
<path d="M384.072 196.205C384.072 198.635 382.218 200.093 379.158 200.093C375.954 200.093 374.208 198.599 374.208 196.205C374.208 194.927 374.658 193.973 375.486 193.343H374.442V191.759H384.288C386.952 191.759 388.194 193.469 388.194 195.665C388.194 197.915 387.114 199.499 384.936 199.841V198.257C386.196 198.059 386.88 197.069 386.88 195.683C386.88 194.279 386.124 193.343 384.342 193.343H382.704C383.604 194.009 384.072 194.981 384.072 196.205ZM382.704 195.917C382.704 194.243 381.444 193.343 379.14 193.343C376.89 193.343 375.576 194.279 375.576 195.917C375.576 197.573 376.836 198.473 379.158 198.473C381.408 198.473 382.704 197.555 382.704 195.917Z" fill="black"/>
<path d="M373.164 189.578H371.04V187.994H373.164V189.578ZM384 189.578H374.442V187.994H384V189.578Z" fill="black"/>
<path d="M381.246 185.626H375.702V186.958H374.442V185.626H372.246V184.042H374.442V181.936H375.702V184.042H381.246C382.398 184.042 382.938 183.7 382.938 182.296V181.972H384.072C384.162 182.152 384.216 182.548 384.216 182.998C384.216 184.78 383.262 185.626 381.246 185.626Z" fill="black"/>
<path d="M377.556 179.33V180.914C375.45 180.608 374.208 179.222 374.208 176.882C374.208 174.326 375.702 173.084 377.934 173.084H381.696C382.794 173.084 383.478 172.994 384 172.742V174.416C383.622 174.596 383.064 174.65 382.488 174.668C383.694 175.478 384.216 176.774 384.216 177.926C384.216 179.906 383.298 181.238 381.48 181.238C380.166 181.238 379.212 180.518 378.744 179.114C378.312 177.818 378.204 176.504 378.186 174.668H377.97C376.422 174.668 375.576 175.388 375.576 177.026C375.576 178.394 376.332 179.132 377.556 179.33ZM381.444 179.618C382.326 179.618 382.848 178.88 382.848 177.764C382.848 176 381.462 174.668 379.824 174.668H379.374C379.41 178.736 380.274 179.618 381.444 179.618Z" fill="black"/>
<path d="M384 170.847H371.04V169.263H384V170.847Z" fill="black"/>
<path d="M408 218.348L405.066 219.5V225.368L408 226.52V228.158L395.76 223.352V221.444L408 216.62V218.348ZM398.442 222.794L403.734 224.864V220.004L398.442 222.074L397.362 222.434L398.442 222.794Z" fill="black"/>
<path d="M408.072 212.227C408.072 214.657 406.218 216.115 403.158 216.115C399.954 216.115 398.208 214.621 398.208 212.227C398.208 210.949 398.658 209.995 399.486 209.365H398.442V207.781H408.288C410.952 207.781 412.194 209.491 412.194 211.687C412.194 213.937 411.114 215.521 408.936 215.863V214.279C410.196 214.081 410.88 213.091 410.88 211.705C410.88 210.301 410.124 209.365 408.342 209.365H406.704C407.604 210.031 408.072 211.003 408.072 212.227ZM406.704 211.939C406.704 210.265 405.444 209.365 403.14 209.365C400.89 209.365 399.576 210.301 399.576 211.939C399.576 213.595 400.836 214.495 403.158 214.495C405.408 214.495 406.704 213.577 406.704 211.939Z" fill="black"/>
<path d="M404.886 197.339C407.118 197.861 408.216 199.463 408.216 201.641C408.216 204.413 406.344 206.087 403.23 206.087C399.99 206.087 398.208 204.413 398.208 201.731C398.208 199.031 400.062 197.411 403.104 197.411H403.5V204.467C405.642 204.377 406.848 203.369 406.848 201.641C406.848 200.291 406.2 199.337 404.886 198.995V197.339ZM399.576 201.731C399.576 203.261 400.53 204.179 402.312 204.413V199.067C400.548 199.283 399.576 200.237 399.576 201.731Z" fill="black"/>
<path d="M408 195.66H398.442V194.076H399.738C398.73 193.428 398.208 192.384 398.208 191.124C398.208 189.09 399.396 187.884 401.61 187.884H408V189.468H401.934C400.494 189.468 399.558 190.116 399.558 191.556C399.558 193.14 400.98 194.076 402.348 194.076H408V195.66Z" fill="black"/>
<path d="M401.736 177.817V179.401C400.278 179.653 399.576 180.625 399.576 181.885C399.576 183.649 400.872 184.585 403.23 184.585C405.552 184.585 406.866 183.595 406.866 181.831C406.866 180.553 406.182 179.635 404.814 179.329V177.745C407.19 178.177 408.216 179.779 408.216 181.867C408.216 184.585 406.326 186.205 403.23 186.205C399.99 186.205 398.208 184.549 398.208 181.885C398.208 179.779 399.396 178.123 401.736 177.817Z" fill="black"/>
<path d="M412.176 175.979C412.176 176.339 412.086 176.717 412.032 176.915H410.808V176.429C410.808 175.259 410.574 174.935 408.432 173.999L407.694 173.675L398.442 177.581V175.871L404.76 173.279L406.038 172.847L404.76 172.415L398.442 169.895V168.275L409.26 172.739C411.564 173.693 412.176 174.323 412.176 175.979Z" fill="black"/>
<path d="M305.5 241.5L484 91L456 12L263 169.5L305.5 241.5Z" fill="#FFDECB"/>
<path d="M298.911 185.655L293.855 181.935L293.311 181.52L293.559 182.161L295.81 188.02L294.77 188.814L287.76 183.898L288.695 183.185L294.103 187.089L294.608 187.473L294.361 186.892L291.967 180.688L292.912 179.968L298.253 183.922L298.749 184.314L298.501 183.733L296.156 177.493L297.052 176.809L299.941 184.869L298.911 185.655Z" fill="black"/>
<path d="M305.531 177.993C306.157 179.387 305.752 180.617 304.597 181.497C303.128 182.618 301.484 182.303 300.225 180.653C298.914 178.935 299.081 177.314 300.503 176.229C301.934 175.137 303.542 175.465 304.772 177.077L304.932 177.287L301.192 180.141C302.106 181.239 303.128 181.471 304.044 180.772C304.76 180.226 305.003 179.497 304.653 178.662L305.531 177.993ZM301.056 176.954C300.245 177.573 300.144 178.45 300.741 179.489L303.574 177.327C302.746 176.48 301.848 176.35 301.056 176.954Z" fill="black"/>
<path d="M303.22 173.703L302.449 172.692L303.479 171.906L303.981 172.564C304.505 173.251 304.675 173.77 304.772 174.451L304.285 174.822C304.125 174.236 303.989 173.841 303.64 173.383L303.22 173.703Z" fill="black"/>
<path d="M309.474 177.596L305.609 172.53L306.448 171.889L307.045 172.672C306.915 171.79 307.241 171.089 307.851 170.623C308.052 170.47 308.269 170.379 308.423 170.383L308.998 171.136C308.819 171.198 308.623 171.317 308.422 171.47C307.411 172.242 307.453 173.206 308.151 174.122L310.313 176.955L309.474 177.596Z" fill="black"/>
<path d="M315.869 170.106C316.494 171.5 316.089 172.73 314.935 173.61C313.466 174.731 311.821 174.416 310.562 172.766C309.252 171.048 309.419 169.427 310.84 168.342C312.271 167.251 313.88 167.578 315.11 169.19L315.27 169.4L311.53 172.254C312.444 173.353 313.466 173.584 314.382 172.885C315.097 172.34 315.341 171.61 314.991 170.776L315.869 170.106ZM311.393 169.067C310.582 169.686 310.482 170.563 311.078 171.602L313.912 169.44C313.084 168.593 312.185 168.463 311.393 169.067Z" fill="black"/>
<path d="M317.904 165.761L317.064 166.401C316.375 165.161 316.607 163.943 317.847 162.996C319.202 161.963 320.465 162.252 321.367 163.436L322.888 165.429C323.332 166.011 323.657 166.338 324.001 166.512L323.114 167.189C322.866 167.062 322.611 166.788 322.369 166.49C322.427 167.456 321.952 168.257 321.341 168.723C320.292 169.524 319.214 169.576 318.479 168.612C317.948 167.916 317.944 167.119 318.499 166.303C319.011 165.55 319.664 164.962 320.629 164.21L320.542 164.095C319.916 163.275 319.192 163.117 318.324 163.78C317.599 164.333 317.514 165.032 317.904 165.761ZM319.323 167.938C319.68 168.406 320.282 168.384 320.874 167.933C321.809 167.219 321.954 165.946 321.292 165.078L321.11 164.839C318.968 166.503 318.85 167.318 319.323 167.938Z" fill="black"/>
<path d="M328.711 163.101C327.365 164.127 325.797 163.753 324.538 162.103C323.228 160.386 323.337 158.808 324.664 157.796C325.265 157.338 325.94 157.214 326.631 157.427L324.804 155.032L325.644 154.392L330.884 161.261L330.045 161.902L329.557 161.262C329.587 161.994 329.312 162.642 328.711 163.101ZM328.215 162.332C329.102 161.655 329.062 160.614 328.116 159.373C327.177 158.143 326.142 157.815 325.274 158.477C324.396 159.147 324.443 160.198 325.397 161.448C326.329 162.669 327.356 162.987 328.215 162.332Z" fill="black"/>
<path d="M327.649 154.643L326.79 153.517L327.63 152.877L328.489 154.002L327.649 154.643ZM332.031 160.386L328.166 155.32L329.005 154.68L332.87 159.746L332.031 160.386Z" fill="black"/>
<path d="M335.843 157.538C334.555 158.521 333.033 158.128 331.795 156.506C330.5 154.808 330.585 153.278 331.854 152.31C332.532 151.793 333.219 151.646 333.888 151.83L333.466 151.277L334.305 150.636L338.287 155.855C339.364 157.267 338.96 158.617 337.796 159.505C336.604 160.414 335.327 160.482 334.265 159.466L335.105 158.826C335.719 159.414 336.521 159.376 337.255 158.815C337.999 158.248 338.19 157.468 337.469 156.524L336.807 155.656C336.818 156.402 336.492 157.043 335.843 157.538ZM335.443 156.697C336.33 156.02 336.297 154.988 335.366 153.767C334.456 152.574 333.428 152.256 332.56 152.919C331.682 153.588 331.715 154.62 332.654 155.851C333.564 157.043 334.574 157.359 335.443 156.697Z" fill="black"/>
<path d="M334.944 149.077L334.086 147.951L334.925 147.311L335.784 148.436L334.944 149.077ZM339.326 154.82L335.461 149.754L336.301 149.114L340.166 154.18L339.326 154.82Z" fill="black"/>
<path d="M340.307 151.763L338.065 148.824L337.359 149.363L336.85 148.695L337.556 148.156L336.668 146.992L337.507 146.352L338.395 147.516L339.512 146.664L340.021 147.332L338.905 148.184L341.147 151.122C341.613 151.733 342.012 151.881 342.756 151.313L342.928 151.182L343.387 151.783C343.328 151.903 343.14 152.092 342.901 152.274C341.956 152.995 341.122 152.831 340.307 151.763Z" fill="black"/>
<path d="M342.152 147.261L341.312 147.901C340.623 146.661 340.855 145.443 342.096 144.497C343.45 143.463 344.713 143.753 345.615 144.936L347.137 146.93C347.581 147.511 347.905 147.838 348.25 148.012L347.362 148.689C347.114 148.562 346.86 148.288 346.617 147.99C346.676 148.957 346.2 149.757 345.589 150.223C344.54 151.024 343.463 151.076 342.728 150.112C342.196 149.416 342.192 148.619 342.747 147.803C343.259 147.05 343.912 146.462 344.878 145.71L344.79 145.595C344.164 144.775 343.441 144.617 342.573 145.28C341.847 145.833 341.762 146.532 342.152 147.261ZM343.572 149.438C343.928 149.906 344.531 149.884 345.122 149.433C346.057 148.719 346.202 147.446 345.54 146.578L345.358 146.339C343.217 148.003 343.098 148.818 343.572 149.438Z" fill="black"/>
<path d="M349.254 147.246L344.013 140.377L344.853 139.737L350.093 146.606L349.254 147.246Z" fill="black"/>
<path d="M351.12 140.419L350.28 141.059C349.591 139.819 349.823 138.601 351.064 137.654C352.418 136.621 353.681 136.911 354.583 138.094L356.105 140.087C356.549 140.669 356.873 140.996 357.218 141.17L356.33 141.847C356.082 141.72 355.828 141.446 355.585 141.148C355.644 142.115 355.168 142.915 354.557 143.381C353.508 144.182 352.431 144.234 351.696 143.27C351.164 142.574 351.16 141.777 351.715 140.961C352.227 140.208 352.88 139.62 353.846 138.868L353.758 138.753C353.132 137.933 352.409 137.775 351.541 138.438C350.815 138.991 350.73 139.69 351.12 140.419ZM352.54 142.596C352.896 143.064 353.499 143.042 354.09 142.591C355.025 141.877 355.171 140.604 354.508 139.736L354.326 139.497C352.185 141.161 352.066 141.976 352.54 142.596Z" fill="black"/>
<path d="M360.054 139.067C358.766 140.049 357.244 139.656 356.006 138.034C354.711 136.336 354.797 134.807 356.065 133.838C356.743 133.322 357.43 133.174 358.099 133.359L357.677 132.805L358.517 132.165L362.498 137.383C363.575 138.795 363.171 140.145 362.007 141.033C360.815 141.943 359.538 142.011 358.476 140.995L359.316 140.354C359.93 140.942 360.732 140.904 361.466 140.344C362.21 139.776 362.401 138.997 361.68 138.052L361.018 137.184C361.029 137.931 360.703 138.572 360.054 139.067ZM359.654 138.225C360.541 137.548 360.508 136.516 359.577 135.295C358.667 134.103 357.639 133.785 356.771 134.447C355.894 135.117 355.926 136.149 356.865 137.379C357.775 138.572 358.785 138.887 359.654 138.225Z" fill="black"/>
<path d="M366.657 131.357C367.283 132.751 366.878 133.981 365.724 134.862C364.254 135.983 362.61 135.668 361.351 134.017C360.041 132.3 360.207 130.678 361.629 129.594C363.06 128.502 364.668 128.83 365.898 130.442L366.059 130.652L362.319 133.505C363.233 134.604 364.255 134.836 365.17 134.137C365.886 133.591 366.13 132.862 365.779 132.027L366.657 131.357ZM362.182 130.319C361.371 130.938 361.27 131.815 361.867 132.854L364.7 130.692C363.873 129.844 362.974 129.715 362.182 130.319Z" fill="black"/>
<path d="M368.806 132.329L364.941 127.263L365.781 126.623L366.305 127.309C366.241 126.513 366.583 125.814 367.251 125.305C368.329 124.482 369.448 124.624 370.344 125.798L372.928 129.185L372.088 129.825L369.635 126.61C369.053 125.847 368.331 125.613 367.568 126.195C366.728 126.836 366.807 127.968 367.36 128.693L369.646 131.689L368.806 132.329Z" fill="black"/>
<path d="M375.73 121.794L374.891 122.434C374.168 121.763 373.369 121.784 372.701 122.294C371.766 123.007 371.794 124.073 372.747 125.322C373.686 126.553 374.742 126.849 375.677 126.136C376.355 125.619 376.565 124.885 376.174 124.037L377.013 123.396C377.745 124.83 377.311 126.022 376.204 126.866C374.763 127.965 373.141 127.619 371.889 125.978C370.578 124.26 370.736 122.646 372.148 121.569C373.264 120.717 374.622 120.677 375.73 121.794Z" fill="black"/>
<path d="M380.926 126.584C380.735 126.73 380.499 126.835 380.372 126.886L379.877 126.237L380.134 126.041C380.755 125.568 380.832 125.313 380.462 123.799L380.335 123.277L374.523 119.952L375.43 119.261L379.358 121.562L380.104 122.064L379.816 121.212L378.597 116.844L379.456 116.189L381.464 123.728C381.89 125.335 381.804 125.914 380.926 126.584Z" fill="black"/>
<path d="M384.569 117.994L382.327 115.055L381.621 115.594L381.111 114.926L381.817 114.388L380.929 113.224L381.769 112.583L382.657 113.747L383.773 112.895L384.283 113.563L383.167 114.415L385.408 117.353C385.874 117.964 386.274 118.112 387.018 117.544L387.19 117.413L387.648 118.014C387.589 118.135 387.401 118.323 387.163 118.505C386.218 119.226 385.384 119.062 384.569 117.994Z" fill="black"/>
<path d="M388.247 117.497L383.006 110.628L383.846 109.988L385.745 112.478C385.681 111.681 386.023 110.982 386.691 110.473C387.769 109.65 388.889 109.792 389.784 110.966L392.368 114.353L391.529 114.993L389.076 111.778C388.493 111.015 387.771 110.781 387.008 111.363C386.169 112.004 386.248 113.136 386.801 113.861L389.086 116.857L388.247 117.497Z" fill="black"/>
<path d="M391.683 109.472L390.843 110.113C390.154 108.873 390.386 107.654 391.626 106.708C392.981 105.674 394.243 105.964 395.146 107.147L396.667 109.141C397.111 109.723 397.436 110.049 397.78 110.224L396.893 110.901C396.645 110.773 396.39 110.499 396.148 110.201C396.206 111.168 395.73 111.969 395.12 112.435C394.07 113.235 392.993 113.287 392.258 112.324C391.727 111.627 391.723 110.83 392.277 110.015C392.79 109.262 393.442 108.673 394.408 107.921L394.321 107.807C393.695 106.986 392.971 106.829 392.103 107.491C391.378 108.044 391.293 108.744 391.683 109.472ZM393.102 111.65C393.459 112.117 394.061 112.095 394.653 111.644C395.587 110.931 395.733 109.657 395.071 108.789L394.889 108.551C392.747 110.215 392.629 111.029 393.102 111.65Z" fill="black"/>
<path d="M397.785 107.911L395.543 104.972L394.837 105.511L394.328 104.843L395.034 104.304L394.146 103.14L394.985 102.5L395.873 103.664L396.99 102.812L397.499 103.48L396.383 104.332L398.625 107.27C399.091 107.881 399.49 108.029 400.234 107.461L400.406 107.33L400.865 107.931C400.806 108.051 400.618 108.24 400.379 108.422C399.435 109.143 398.6 108.979 397.785 107.911Z" fill="black"/>
<path d="M404.022 105.462L403.182 106.102L397.942 99.2331L398.781 98.5926L400.637 101.025C400.607 100.294 400.883 99.6458 401.484 99.1872C402.829 98.1609 404.397 98.5344 405.656 100.185C406.966 101.902 406.857 103.48 405.531 104.492C404.93 104.95 404.254 105.073 403.563 104.861L404.022 105.462ZM401.98 99.9559C401.092 100.633 401.132 101.674 402.078 102.914C403.017 104.145 404.052 104.473 404.92 103.81C405.798 103.141 405.751 102.09 404.798 100.84C403.866 99.6188 402.838 99.3009 401.98 99.9559Z" fill="black"/>
<path d="M408.488 102.054L403.248 95.1849L404.087 94.5444L409.328 101.414L408.488 102.054Z" fill="black"/>
<path d="M413.588 95.552C414.214 96.9461 413.809 98.1758 412.655 99.0566C411.185 100.177 409.541 99.8622 408.282 98.2117C406.972 96.4944 407.139 94.873 408.56 93.7885C409.991 92.6967 411.599 93.0242 412.83 94.6366L412.99 94.8465L409.25 97.6997C410.164 98.7987 411.186 99.0303 412.102 98.3315C412.817 97.7856 413.061 97.0564 412.711 96.2216L413.588 95.552ZM409.113 94.5136C408.302 95.1323 408.201 96.0091 408.798 97.0482L411.632 94.8865C410.804 94.0388 409.905 93.9094 409.113 94.5136Z" fill="black"/>
<path d="M415.737 96.5236L411.872 91.4576L412.712 90.8171L413.236 91.504C413.172 90.7077 413.514 90.0089 414.182 89.4994C415.26 88.6769 416.38 88.8189 417.275 89.9923L419.859 93.3792L419.019 94.0197L416.566 90.8046C415.984 90.0414 415.262 89.8073 414.499 90.3896C413.659 91.0301 413.738 92.1623 414.291 92.8874L416.577 95.8831L415.737 96.5236Z" fill="black"/>
<path d="M422.992 91.1698C421.647 92.1961 420.079 91.8226 418.82 90.1721C417.51 88.4548 417.619 86.8771 418.945 85.8653C419.546 85.4068 420.222 85.2836 420.913 85.4963L419.086 83.1017L419.925 82.4612L425.166 89.3303L424.326 89.9708L423.839 89.3316C423.869 90.0634 423.593 90.7113 422.992 91.1698ZM422.496 90.4011C423.383 89.7241 423.344 88.6828 422.397 87.4426C421.458 86.2119 420.424 85.8844 419.556 86.5467C418.678 87.2164 418.725 88.2672 419.678 89.517C420.61 90.7382 421.638 91.0562 422.496 90.4011Z" fill="black"/>
<path d="M424.057 84.214C425.135 85.626 427.538 81.9509 429.132 84.0402C429.853 84.9847 429.472 86.2263 428.279 87.1362C427.077 88.0533 425.801 88.1214 424.7 87.0744L425.54 86.4339C426.193 87.0525 427.016 87.0434 427.798 86.4465C428.561 85.8642 428.7 85.215 428.336 84.738C427.281 83.3546 424.901 86.9815 423.3 84.8827C422.71 84.1099 422.772 82.9453 424.013 81.9991C425.11 81.162 426.314 81.0585 427.437 82.1941L426.597 82.8346C425.869 82.1374 425.205 82.1765 424.489 82.7224C423.859 83.2028 423.737 83.7942 424.057 84.214Z" fill="black"/>
<path d="M434.406 77.0281L433.566 77.6687C432.843 76.9978 432.044 77.0188 431.376 77.5283C430.441 78.2416 430.469 79.307 431.423 80.5568C432.362 81.7875 433.418 82.0836 434.353 81.3703C435.03 80.8535 435.24 80.1198 434.849 79.271L435.689 78.6304C436.421 80.0645 435.986 81.2561 434.88 82.1004C433.439 83.1995 431.816 82.8528 430.564 81.2119C429.254 79.4946 429.411 77.8804 430.823 76.8032C431.939 75.9516 433.297 75.9116 434.406 77.0281Z" fill="black"/>
<path d="M437.824 79.673L433.959 74.6071L434.798 73.9665L435.395 74.7489C435.266 73.8667 435.591 73.1656 436.202 72.6998C436.402 72.5469 436.62 72.4563 436.773 72.4598L437.348 73.2135C437.169 73.275 436.973 73.3942 436.773 73.5471C435.761 74.3186 435.803 75.2831 436.502 76.199L438.663 79.0325L437.824 79.673Z" fill="black"/>
<path d="M444.219 72.183C444.845 73.5771 444.44 74.8068 443.285 75.6876C441.816 76.8085 440.172 76.4932 438.912 74.8427C437.602 73.1254 437.769 71.504 439.19 70.4195C440.621 69.3276 442.23 69.6552 443.46 71.2676L443.62 71.4774L439.88 74.3307C440.794 75.4296 441.816 75.6612 442.732 74.9625C443.447 74.4166 443.691 73.6873 443.341 72.8526L444.219 72.183ZM439.744 71.1445C438.933 71.7632 438.832 72.6401 439.428 73.6792L442.262 71.5174C441.434 70.6698 440.535 70.5404 439.744 71.1445Z" fill="black"/>
<path d="M444.535 69.1495L443.695 69.7901C443.006 68.5501 443.238 67.3313 444.478 66.3851C445.833 65.3515 447.096 65.6411 447.998 66.8242L449.519 68.8181C449.963 69.4001 450.288 69.7262 450.632 69.901L449.745 70.5779C449.497 70.4503 449.243 70.1764 449 69.8784C449.058 70.8452 448.583 71.6459 447.972 72.1117C446.923 72.9124 445.845 72.9645 445.11 72.0009C444.579 71.3044 444.575 70.5076 445.13 69.6919C445.642 68.9388 446.295 68.3502 447.26 67.5983L447.173 67.4838C446.547 66.6633 445.823 66.506 444.955 67.1684C444.23 67.7216 444.145 68.4207 444.535 69.1495ZM445.954 71.3267C446.311 71.7942 446.913 71.7724 447.505 71.3212C448.44 70.6079 448.585 69.3346 447.923 68.4664L447.741 68.2279C445.599 69.892 445.481 70.7066 445.954 71.3267Z" fill="black"/>
<path d="M303.075 200.346C304.537 202.126 307.268 197.568 309.394 200.155C310.392 201.369 309.965 202.854 308.621 203.958C307.267 205.071 305.83 205.211 304.508 204.17L305.398 203.438C306.219 204.022 307.12 203.965 308.029 203.218C308.974 202.441 309.132 201.613 308.614 200.982C307.029 199.054 304.344 203.668 302.249 201.118C301.502 200.209 301.607 198.787 302.998 197.645C304.213 196.647 305.666 196.431 307.003 197.585L306.103 198.324C305.223 197.649 304.388 197.729 303.581 198.392C302.784 199.047 302.618 199.79 303.075 200.346Z" fill="black"/>
<path d="M310.614 199.758L308.268 196.902L307.581 197.466L307.048 196.817L307.734 196.253L306.805 195.122L307.621 194.452L308.55 195.583L309.635 194.692L310.168 195.341L309.083 196.232L311.43 199.088C311.918 199.681 312.322 199.814 313.045 199.22L313.212 199.083L313.692 199.667C313.638 199.79 313.456 199.985 313.225 200.175C312.307 200.93 311.467 200.796 310.614 199.758Z" fill="black"/>
<path d="M314.272 199.129L310.226 194.206L311.042 193.535L311.667 194.296C311.505 193.419 311.805 192.706 312.399 192.219C312.593 192.059 312.808 191.96 312.961 191.958L313.563 192.691C313.386 192.759 313.195 192.885 313 193.045C312.017 193.852 312.093 194.815 312.825 195.705L315.088 198.458L314.272 199.129Z" fill="black"/>
<path d="M315.478 192.577L314.662 193.248C313.928 192.033 314.116 190.807 315.322 189.817C316.638 188.735 317.91 188.979 318.855 190.128L320.447 192.066C320.912 192.632 321.248 192.946 321.599 193.108L320.736 193.817C320.484 193.698 320.22 193.434 319.967 193.144C320.06 194.108 319.613 194.926 319.02 195.413C318 196.251 316.925 196.342 316.156 195.406C315.6 194.729 315.567 193.933 316.092 193.098C316.577 192.327 317.208 191.715 318.146 190.929L318.054 190.817C317.399 190.02 316.67 189.889 315.827 190.582C315.122 191.161 315.062 191.863 315.478 192.577ZM316.975 194.702C317.348 195.156 317.95 195.113 318.524 194.64C319.433 193.894 319.532 192.616 318.839 191.772L318.649 191.54C316.569 193.281 316.48 194.099 316.975 194.702Z" fill="black"/>
<path d="M321.52 190.796L319.174 187.941L318.488 188.504L317.954 187.855L318.64 187.292L317.711 186.16L318.527 185.49L319.456 186.621L320.541 185.73L321.074 186.379L319.99 187.27L322.336 190.126C322.824 190.719 323.228 190.852 323.952 190.258L324.118 190.121L324.598 190.705C324.544 190.828 324.363 191.023 324.131 191.214C323.213 191.968 322.374 191.835 321.52 190.796Z" fill="black"/>
<path d="M328.115 185.066C328.791 186.437 328.431 187.68 327.309 188.602C325.881 189.775 324.227 189.52 322.909 187.916C321.537 186.247 321.645 184.621 323.027 183.485C324.417 182.343 326.037 182.612 327.324 184.179L327.492 184.383L323.857 187.369C324.81 188.434 325.84 188.629 326.73 187.898C327.425 187.326 327.642 186.589 327.262 185.767L328.115 185.066ZM323.606 184.19C322.818 184.838 322.749 185.717 323.382 186.734L326.136 184.472C325.278 183.655 324.375 183.558 323.606 184.19Z" fill="black"/>
<path d="M332.081 184.557C330.829 185.585 329.294 185.247 327.998 183.671C326.642 182.021 326.673 180.489 327.906 179.476C328.564 178.935 329.246 178.763 329.921 178.923L329.479 178.385L330.295 177.715L334.462 182.786C335.59 184.158 335.235 185.522 334.104 186.451C332.945 187.404 331.672 187.518 330.574 186.541L331.39 185.87C332.025 186.435 332.824 186.369 333.538 185.782C334.261 185.188 334.424 184.402 333.669 183.484L332.976 182.641C333.014 183.386 332.711 184.039 332.081 184.557ZM331.65 183.73C332.512 183.022 332.443 181.992 331.468 180.805C330.515 179.646 329.477 179.365 328.633 180.059C327.78 180.76 327.85 181.79 328.833 182.986C329.785 184.144 330.807 184.423 331.65 183.73Z" fill="black"/>
<path d="M337.454 183.683C337.268 183.835 337.035 183.949 336.911 184.005L336.393 183.375L336.643 183.169C337.245 182.674 337.313 182.416 336.889 180.917L336.743 180.399L330.816 177.287L331.696 176.563L335.706 178.72L336.469 179.196L336.151 178.355L334.774 174.034L335.609 173.348L337.888 180.81C338.372 182.4 338.307 182.982 337.454 183.683Z" fill="black"/>
<path d="M340.784 174.967L338.437 172.111L337.751 172.675L337.218 172.026L337.904 171.462L336.974 170.331L337.79 169.661L338.72 170.792L339.805 169.901L340.338 170.55L339.253 171.441L341.6 174.297C342.087 174.89 342.492 175.023 343.215 174.429L343.382 174.292L343.862 174.876C343.807 174.999 343.626 175.194 343.394 175.384C342.477 176.139 341.637 176.005 340.784 174.967Z" fill="black"/>
<path d="M346.535 172.803C345.126 173.961 343.49 173.691 342.172 172.087C340.801 170.418 340.918 168.784 342.299 167.649C343.709 166.491 345.36 166.78 346.678 168.384C348.042 170.044 347.917 171.668 346.535 172.803ZM345.956 172.099C346.874 171.345 346.834 170.275 345.844 169.07C344.861 167.874 343.787 167.607 342.879 168.353C341.961 169.107 342.009 170.186 343.007 171.401C343.982 172.588 345.048 172.845 345.956 172.099Z" fill="black"/>
<path d="M352.048 168.087L351.232 168.758L345.747 162.082L346.563 161.412L348.506 163.776C348.449 163.046 348.701 162.388 349.285 161.908C350.592 160.834 352.173 161.151 353.491 162.755C354.862 164.424 354.81 166.004 353.521 167.063C352.937 167.543 352.266 167.691 351.568 167.503L352.048 168.087ZM349.809 162.659C348.946 163.367 349.024 164.406 350.014 165.612C350.997 166.808 352.043 167.098 352.886 166.404C353.739 165.703 353.654 164.655 352.656 163.44C351.681 162.254 350.643 161.973 349.809 162.659Z" fill="black"/>
<path d="M356.389 164.52L352.343 159.597L353.159 158.927L353.784 159.687C353.623 158.81 353.922 158.098 354.516 157.61C354.71 157.45 354.925 157.352 355.078 157.35L355.68 158.082C355.503 158.15 355.312 158.276 355.117 158.436C354.134 159.244 354.211 160.206 354.942 161.096L357.205 163.85L356.389 164.52Z" fill="black"/>
<path d="M355.076 156.249L354.177 155.155L354.993 154.485L355.892 155.579L355.076 156.249ZM359.662 161.831L355.617 156.908L356.432 156.237L360.478 161.16L359.662 161.831Z" fill="black"/>
<path d="M361.586 160.25L357.541 155.326L358.357 154.656L358.905 155.324C358.812 154.53 359.129 153.819 359.778 153.286C360.826 152.425 361.95 152.527 362.887 153.667L365.591 156.958L364.776 157.629L362.208 154.504C361.599 153.763 360.869 153.555 360.127 154.164C359.311 154.835 359.431 155.963 360.01 156.668L362.402 159.579L361.586 160.25Z" fill="black"/>
<path d="M368.489 154.639C367.238 155.668 365.702 155.33 364.407 153.754C363.051 152.103 363.081 150.572 364.314 149.559C364.973 149.018 365.654 148.846 366.329 149.006L365.887 148.468L366.703 147.797L370.871 152.869C371.998 154.241 371.643 155.604 370.512 156.534C369.353 157.486 368.08 157.6 366.982 156.623L367.798 155.953C368.433 156.518 369.233 156.451 369.947 155.865C370.67 155.27 370.832 154.485 370.078 153.567L369.384 152.723C369.422 153.469 369.12 154.121 368.489 154.639ZM368.059 153.813C368.921 153.104 368.851 152.074 367.876 150.888C366.924 149.729 365.885 149.448 365.042 150.141C364.189 150.842 364.258 151.872 365.241 153.068C366.193 154.227 367.215 154.506 368.059 153.813Z" fill="black"/>
<path d="M375.533 152.393C375.347 152.545 375.114 152.659 374.99 152.715L374.472 152.084L374.722 151.879C375.325 151.383 375.392 151.126 374.968 149.626L374.822 149.109L368.895 145.997L369.775 145.273L373.785 147.43L374.548 147.906L374.23 147.065L372.853 142.744L373.688 142.058L375.967 149.519C376.451 151.11 376.386 151.692 375.533 152.393Z" fill="black"/>
<path d="M380.295 145.062C378.886 146.22 377.25 145.949 375.932 144.345C374.561 142.677 374.678 141.043 376.059 139.907C377.469 138.749 379.12 139.039 380.438 140.643C381.802 142.302 381.677 143.927 380.295 145.062ZM379.716 144.358C380.634 143.603 380.594 142.534 379.603 141.329C378.621 140.133 377.547 139.865 376.638 140.612C375.72 141.366 375.768 142.445 376.766 143.66C377.742 144.847 378.808 145.104 379.716 144.358Z" fill="black"/>
<path d="M384.802 137.802L382.41 134.891L383.226 134.221L387.271 139.144L386.455 139.814L385.907 139.147C385.999 139.94 385.694 140.626 385.054 141.152C384.025 141.998 382.918 141.898 381.981 140.757L379.276 137.466L380.092 136.796L382.659 139.92C383.269 140.662 383.982 140.868 384.705 140.274C385.502 139.619 385.381 138.507 384.802 137.802Z" fill="black"/>
<path d="M388.387 138.226L384.342 133.303L385.158 132.633L385.783 133.393C385.621 132.516 385.921 131.804 386.514 131.316C386.709 131.156 386.923 131.058 387.077 131.056L387.679 131.788C387.502 131.856 387.31 131.982 387.116 132.142C386.133 132.95 386.209 133.912 386.941 134.802L389.203 137.556L388.387 138.226Z" fill="black"/>
<path d="M394.147 133.494L393.331 134.164L387.846 127.489L388.662 126.818L390.605 129.182C390.548 128.452 390.8 127.795 391.384 127.315C392.691 126.241 394.272 126.557 395.59 128.161C396.961 129.83 396.909 131.411 395.62 132.47C395.036 132.95 394.365 133.097 393.667 132.909L394.147 133.494ZM391.908 128.065C391.045 128.774 391.123 129.813 392.113 131.018C393.096 132.214 394.142 132.504 394.985 131.811C395.838 131.11 395.753 130.061 394.755 128.847C393.78 127.66 392.742 127.379 391.908 128.065Z" fill="black"/>
<path d="M398.488 129.927L394.442 125.004L395.258 124.333L395.883 125.093C395.722 124.217 396.021 123.504 396.615 123.017C396.809 122.857 397.024 122.758 397.177 122.756L397.779 123.489C397.602 123.557 397.411 123.683 397.216 123.843C396.233 124.65 396.31 125.613 397.041 126.503L399.304 129.256L398.488 129.927Z" fill="black"/>
<path d="M399.694 123.375L398.878 124.046C398.144 122.831 398.333 121.605 399.538 120.615C400.854 119.533 402.126 119.777 403.071 120.926L404.663 122.864C405.128 123.43 405.464 123.744 405.815 123.906L404.953 124.615C404.7 124.496 404.436 124.231 404.183 123.942C404.276 124.906 403.829 125.724 403.236 126.211C402.216 127.049 401.142 127.14 400.372 126.204C399.816 125.527 399.783 124.731 400.308 123.896C400.793 123.125 401.424 122.513 402.362 121.727L402.271 121.615C401.615 120.818 400.886 120.687 400.043 121.38C399.338 121.959 399.278 122.661 399.694 123.375ZM401.191 125.5C401.565 125.954 402.166 125.911 402.74 125.438C403.649 124.692 403.749 123.414 403.055 122.57L402.865 122.338C400.785 124.079 400.696 124.897 401.191 125.5Z" fill="black"/>
<path d="M406.791 123.104L402.745 118.181L403.561 117.511L404.11 118.178C404.017 117.385 404.334 116.674 404.983 116.141C406.03 115.28 407.154 115.381 408.091 116.522L410.796 119.813L409.98 120.483L407.413 117.359C406.803 116.617 406.073 116.409 405.332 117.019C404.516 117.689 404.635 118.818 405.214 119.522L407.607 122.434L406.791 123.104Z" fill="black"/>
<path d="M413.847 117.492C412.54 118.566 410.96 118.249 409.642 116.645C408.27 114.977 408.323 113.396 409.612 112.337C410.196 111.857 410.867 111.709 411.564 111.897L409.652 109.57L410.468 108.9L415.953 115.575L415.137 116.245L414.627 115.624C414.683 116.354 414.432 117.012 413.847 117.492ZM413.324 116.741C414.186 116.033 414.109 114.994 413.119 113.788C412.136 112.592 411.09 112.303 410.246 112.996C409.393 113.697 409.478 114.745 410.476 115.96C411.451 117.146 412.49 117.427 413.324 116.741Z" fill="black"/>
<path d="M413.735 110.471L411.803 108.423L412.694 107.692L414.319 109.991L413.735 110.471Z" fill="black"/>
<path d="M416.494 108.995C417.622 110.367 419.891 106.608 421.56 108.638C422.314 109.556 421.978 110.811 420.819 111.763C419.651 112.723 418.378 112.837 417.24 111.831L418.056 111.16C418.731 111.755 419.553 111.716 420.314 111.091C421.055 110.482 421.17 109.828 420.789 109.364C419.685 108.02 417.437 111.731 415.761 109.691C415.144 108.94 415.165 107.774 416.37 106.783C417.436 105.907 418.636 105.76 419.799 106.855L418.983 107.525C418.23 106.855 417.567 106.918 416.872 107.489C416.26 107.992 416.159 108.587 416.494 108.995Z" fill="black"/>
<path d="M426.391 106.998L420.51 103.584L421.391 102.86L425.892 105.56L426.363 105.887L426.133 105.362L424.357 100.422L425.183 99.7438L427.392 106.175L426.391 106.998Z" fill="black"/>
<path d="M425.149 98.669L424.25 97.575L425.065 96.9046L425.964 97.9986L425.149 98.669ZM429.735 104.25L425.689 99.3273L426.505 98.6569L430.551 103.58L429.735 104.25Z" fill="black"/>
<path d="M429.252 98.5119C430.38 99.884 432.649 96.1245 434.318 98.155C435.072 99.0728 434.736 100.327 433.577 101.28C432.409 102.24 431.136 102.354 429.998 101.347L430.814 100.677C431.489 101.271 432.311 101.233 433.071 100.608C433.813 99.9983 433.928 99.3446 433.547 98.881C432.443 97.5367 430.195 101.247 428.519 99.2074C427.902 98.4565 427.923 97.2904 429.128 96.3C430.194 95.4239 431.394 95.277 432.557 96.3713L431.741 97.0417C430.988 96.3712 430.325 96.4343 429.63 97.0056C429.018 97.5085 428.917 98.1039 429.252 98.5119Z" fill="black"/>
<path d="M431.659 93.3194L430.76 92.2254L431.576 91.555L432.475 92.649L431.659 93.3194ZM436.245 98.9008L432.2 93.9777L433.016 93.3073L437.061 98.2304L436.245 98.9008Z" fill="black"/>
<path d="M440.263 95.7853C438.854 96.9433 437.218 96.6724 435.9 95.0684C434.529 93.3996 434.646 91.7656 436.027 90.6304C437.437 89.4724 439.088 89.7619 440.406 91.3659C441.77 93.0254 441.645 94.6502 440.263 95.7853ZM439.684 95.0807C440.602 94.3265 440.562 93.2568 439.572 92.0515C438.589 90.8555 437.515 90.5884 436.606 91.3351C435.689 92.0893 435.736 93.1682 436.734 94.3828C437.71 95.5695 438.776 95.8273 439.684 95.0807Z" fill="black"/>
<path d="M443.29 93.1122L439.244 88.1891L440.06 87.5187L440.609 88.1862C440.516 87.3928 440.833 86.682 441.482 86.1487C442.529 85.2879 443.653 85.3893 444.59 86.5297L447.295 89.8211L446.479 90.4915L443.911 87.367C443.302 86.6253 442.572 86.4175 441.83 87.0269C441.015 87.6974 441.134 88.826 441.713 89.5306L444.105 92.4418L443.29 93.1122Z" fill="black"/>
<path d="M449.026 86.022L446.68 83.1665L445.994 83.7302L445.46 83.0812L446.146 82.5175L445.217 81.3864L446.033 80.7159L446.962 81.847L448.047 80.9557L448.58 81.6047L447.496 82.496L449.842 85.3516C450.33 85.945 450.734 86.0784 451.457 85.4841L451.624 85.347L452.104 85.9311C452.05 86.0536 451.869 86.2491 451.637 86.4395C450.719 87.1938 449.879 87.0604 449.026 86.022Z" fill="black"/>
<path d="M454.778 83.8585C453.369 85.0165 451.733 84.7456 450.415 83.1416C449.043 81.4728 449.16 79.8388 450.542 78.7036C451.951 77.5456 453.602 77.8351 454.92 79.4391C456.284 81.0986 456.159 82.7234 454.778 83.8585ZM454.199 83.1539C455.117 82.3997 455.076 81.33 454.086 80.1247C453.103 78.9287 452.03 78.6617 451.121 79.4083C450.203 80.1625 450.251 81.2414 451.249 82.456C452.224 83.6427 453.29 83.9005 454.199 83.1539Z" fill="black"/>
<path d="M459.475 79.8126L453.989 73.1372L454.805 72.4668L460.291 79.1422L459.475 79.8126Z" fill="black"/>
<path d="M456.813 72.6501L455.914 71.5561L456.729 70.8857L457.628 71.9797L456.813 72.6501ZM461.399 78.2315L457.353 73.3084L458.169 72.638L462.215 77.5611L461.399 78.2315Z" fill="black"/>
<path d="M459.208 72.8715L458.675 72.2225L459.361 71.6587L459.087 71.3249C458.234 70.2865 458.256 69.4447 459.165 68.6981C459.369 68.5305 459.566 68.4304 459.68 68.3989L460.16 68.983L460.077 69.0516C459.363 69.6382 459.415 70.0611 459.903 70.6545L460.177 70.9883L461.15 70.1883L461.684 70.8373L460.71 71.6373L464.222 75.9114L463.406 76.5818L459.894 72.3077L459.208 72.8715Z" fill="black"/>
<path d="M468.601 69.6262C469.277 70.9967 468.917 72.2403 467.795 73.1622C466.367 74.3354 464.712 74.0797 463.394 72.4758C462.023 70.8069 462.131 69.1805 463.513 68.0454C464.903 66.9026 466.522 67.1719 467.81 68.7388L467.978 68.9427L464.343 71.9292C465.296 72.9944 466.326 73.1889 467.216 72.4576C467.911 71.8862 468.128 71.1486 467.748 70.327L468.601 69.6262ZM464.092 68.75C463.304 69.3976 463.234 70.2775 463.868 71.2944L466.622 69.0317C465.764 68.2145 464.861 68.1177 464.092 68.75Z" fill="black"/>
<path d="M470.51 70.7445L469.687 69.7432L470.689 68.9204L471.511 69.9218L470.51 70.7445Z" fill="black"/>
<path d="M133.5 197L100 105.5L451.5 0.5L484 91L133.5 197Z" fill="black"/>
<path d="M570.298 190H568.794L568.618 188.624C567.946 189.728 566.81 190.24 565.466 190.24C562.474 190.24 560.506 188.096 560.506 184.576C560.506 181.072 562.474 178.88 565.658 178.88C567.914 178.88 569.818 180.112 570.314 182.48H568.058C567.722 181.312 566.81 180.672 565.594 180.672C563.77 180.672 562.714 182.144 562.714 184.576C562.714 187.008 563.818 188.448 565.674 188.448C567.018 188.448 568.106 187.68 568.25 185.872H565.898V184.24H570.298V190Z" fill="black"/>
<path d="M575.513 190.24C572.969 190.24 571.401 188.528 571.401 185.728C571.401 182.816 573.017 181.184 575.513 181.184C578.041 181.184 579.609 182.912 579.609 185.728C579.609 188.608 577.993 190.24 575.513 190.24ZM575.513 188.544C576.809 188.544 577.497 187.552 577.497 185.728C577.497 183.904 576.793 182.88 575.513 182.88C574.201 182.88 573.513 183.888 573.513 185.728C573.513 187.536 574.217 188.544 575.513 188.544Z" fill="black"/>
<path d="M583.664 190V179.12H587.616C591.024 179.12 593.152 181.184 593.152 184.576C593.152 187.968 591.024 190 587.616 190H583.664ZM587.616 188.256C589.712 188.256 590.96 186.896 590.96 184.576C590.96 182.24 589.712 180.864 587.616 180.864H585.824V188.256H587.616Z" fill="black"/>
<path d="M594.497 180.464V178.48H596.545V180.464H594.497ZM594.497 190V181.424H596.545V190H594.497Z" fill="black"/>
<path d="M601.219 190.032C599.043 190.032 597.699 188.352 597.699 185.616C597.699 182.768 599.075 181.184 601.219 181.184C602.243 181.184 603.043 181.568 603.571 182.288V181.424H605.619V190.272C605.619 192.592 604.019 193.776 601.891 193.776C599.779 193.776 598.243 192.8 597.939 190.768H600.003C600.131 191.68 600.867 192.16 601.859 192.16C602.883 192.16 603.571 191.664 603.571 190.304V188.864C603.011 189.632 602.211 190.032 601.219 190.032ZM601.683 188.336C602.915 188.336 603.571 187.376 603.571 185.616C603.571 183.872 602.883 182.88 601.683 182.88C600.467 182.88 599.811 183.84 599.811 185.616C599.811 187.36 600.467 188.336 601.683 188.336Z" fill="black"/>
<path d="M607.185 180.464V178.48H609.233V180.464H607.185ZM607.185 190V181.424H609.233V190H607.185Z" fill="black"/>
<path d="M611.059 187.328V183.008H609.955V181.424H611.059V179.456H613.107V181.424H614.915V183.008H613.107V187.152C613.107 188.048 613.363 188.528 614.499 188.528H614.883V190.032C614.659 190.144 614.195 190.24 613.635 190.24C611.891 190.24 611.059 189.248 611.059 187.328Z" fill="black"/>
<path d="M617.779 184.24H615.715C615.987 182.336 617.379 181.184 619.539 181.184C621.923 181.184 623.139 182.592 623.139 184.576V187.904C623.139 188.96 623.235 189.552 623.395 190H621.267C621.155 189.712 621.107 189.296 621.091 188.832C620.387 189.824 619.331 190.24 618.307 190.24C616.627 190.24 615.427 189.408 615.427 187.76C615.427 186.592 616.083 185.712 617.395 185.28C618.531 184.896 619.635 184.8 621.075 184.784V184.576C621.075 183.472 620.547 182.88 619.411 182.88C618.435 182.88 617.907 183.424 617.779 184.24ZM617.491 187.648C617.491 188.304 618.003 188.72 618.835 188.72C620.099 188.72 621.075 187.696 621.075 186.416V186.048C618.163 186.096 617.491 186.784 617.491 187.648Z" fill="black"/>
<path d="M624.772 190V178.48H626.82V190H624.772Z" fill="black"/>
<path d="M558.566 206L557.301 201.633L557.169 200.973L557.037 201.633L555.783 206H554.584L552.846 200.159H553.891L555.09 204.691L555.233 205.285L555.376 204.691L556.707 200.159H557.752L559.083 204.691L559.215 205.263L559.336 204.691L560.535 200.159H561.536L559.787 206H558.566Z" fill="black"/>
<path d="M562.191 199.378V198.08H563.159V199.378H562.191ZM562.191 206V200.159H563.159V206H562.191Z" fill="black"/>
<path d="M564.606 204.317V200.929H563.792V200.159H564.606V198.817H565.574V200.159H566.861V200.929H565.574V204.317C565.574 205.021 565.783 205.351 566.641 205.351H566.839V206.044C566.729 206.099 566.487 206.132 566.212 206.132C565.123 206.132 564.606 205.549 564.606 204.317Z" fill="black"/>
<path d="M567.562 206V198.08H568.53V200.951C568.926 200.335 569.564 200.016 570.334 200.016C571.577 200.016 572.314 200.742 572.314 202.095V206H571.346V202.293C571.346 201.413 570.95 200.841 570.07 200.841C569.102 200.841 568.53 201.71 568.53 202.546V206H567.562Z" fill="black"/>
<path d="M575.619 199.378V198.08H576.587V199.378H575.619ZM576.587 206.748C576.587 207.98 576.081 208.563 575.003 208.563C574.761 208.563 574.563 208.519 574.464 208.475V207.782H574.563C575.41 207.782 575.619 207.452 575.619 206.748V200.159H576.587V206.748Z" fill="black"/>
<path d="M581.62 203.613V200.159H582.588V206H581.62V205.208C581.224 205.824 580.608 206.132 579.849 206.132C578.628 206.132 577.902 205.417 577.902 204.064V200.159H578.87V203.866C578.87 204.746 579.255 205.307 580.113 205.307C581.059 205.307 581.62 204.449 581.62 203.613Z" fill="black"/>
<path d="M584.628 201.655C584.628 203.283 588.423 201.941 588.423 204.35C588.423 205.439 587.455 206.132 586.08 206.132C584.694 206.132 583.726 205.472 583.506 204.097H584.474C584.606 204.911 585.211 205.362 586.113 205.362C586.993 205.362 587.455 204.966 587.455 204.416C587.455 202.821 583.704 204.141 583.704 201.721C583.704 200.83 584.397 200.016 585.827 200.016C587.092 200.016 588.027 200.61 588.214 202.062H587.246C587.103 201.149 586.597 200.808 585.772 200.808C585.046 200.808 584.628 201.171 584.628 201.655Z" fill="black"/>
<path d="M589.486 204.317V200.929H588.672V200.159H589.486V198.817H590.454V200.159H591.741V200.929H590.454V204.317C590.454 205.021 590.663 205.351 591.521 205.351H591.719V206.044C591.609 206.099 591.367 206.132 591.092 206.132C590.003 206.132 589.486 205.549 589.486 204.317Z" fill="black"/>
<path d="M596.801 206.132C595.129 206.132 594.128 204.988 594.128 203.085C594.128 201.105 595.162 200.016 596.801 200.016C598.473 200.016 599.474 201.182 599.474 203.085C599.474 205.054 598.44 206.132 596.801 206.132ZM596.801 205.296C597.89 205.296 598.484 204.515 598.484 203.085C598.484 201.666 597.879 200.852 596.801 200.852C595.712 200.852 595.118 201.644 595.118 203.085C595.118 204.493 595.723 205.296 596.801 205.296Z" fill="black"/>
<path d="M600.5 206V200.159H601.468V200.951C601.864 200.335 602.502 200.016 603.272 200.016C604.515 200.016 605.252 200.742 605.252 202.095V206H604.284V202.293C604.284 201.413 603.888 200.841 603.008 200.841C602.04 200.841 601.468 201.71 601.468 202.546V206H600.5Z" fill="black"/>
<path d="M611.624 204.097C611.305 205.461 610.326 206.132 608.995 206.132C607.301 206.132 606.278 204.988 606.278 203.085C606.278 201.105 607.301 200.016 608.94 200.016C610.59 200.016 611.58 201.149 611.58 203.008V203.25H607.268C607.323 204.559 607.939 205.296 608.995 205.296C609.82 205.296 610.403 204.9 610.612 204.097H611.624ZM608.94 200.852C608.005 200.852 607.444 201.435 607.301 202.524H610.568C610.436 201.446 609.853 200.852 608.94 200.852Z" fill="black"/>
<path d="M615.347 201.655C615.347 203.283 619.142 201.941 619.142 204.35C619.142 205.439 618.174 206.132 616.799 206.132C615.413 206.132 614.445 205.472 614.225 204.097H615.193C615.325 204.911 615.93 205.362 616.832 205.362C617.712 205.362 618.174 204.966 618.174 204.416C618.174 202.821 614.423 204.141 614.423 201.721C614.423 200.83 615.116 200.016 616.546 200.016C617.811 200.016 618.746 200.61 618.933 202.062H617.965C617.822 201.149 617.316 200.808 616.491 200.808C615.765 200.808 615.347 201.171 615.347 201.655Z" fill="black"/>
<path d="M620.205 204.317V200.929H619.391V200.159H620.205V198.817H621.173V200.159H622.46V200.929H621.173V204.317C621.173 205.021 621.382 205.351 622.24 205.351H622.438V206.044C622.328 206.099 622.086 206.132 621.811 206.132C620.722 206.132 620.205 205.549 620.205 204.317Z" fill="black"/>
<path d="M628.21 204.097C627.891 205.461 626.912 206.132 625.581 206.132C623.887 206.132 622.864 204.988 622.864 203.085C622.864 201.105 623.887 200.016 625.526 200.016C627.176 200.016 628.166 201.149 628.166 203.008V203.25H623.854C623.909 204.559 624.525 205.296 625.581 205.296C626.406 205.296 626.989 204.9 627.198 204.097H628.21ZM625.526 200.852C624.591 200.852 624.03 201.435 623.887 202.524H627.154C627.022 201.446 626.439 200.852 625.526 200.852Z" fill="black"/>
<path d="M630.215 208.42H629.247V200.159H630.215V200.885C630.6 200.335 631.161 200.016 631.854 200.016C633.405 200.016 634.34 201.16 634.34 203.063C634.34 205.043 633.383 206.132 631.854 206.132C631.161 206.132 630.6 205.846 630.215 205.307V208.42ZM631.788 200.852C630.765 200.852 630.215 201.633 630.215 203.063C630.215 204.482 630.787 205.296 631.788 205.296C632.8 205.296 633.35 204.504 633.35 203.063C633.35 201.655 632.778 200.852 631.788 200.852Z" fill="black"/>
<path d="M481.235 165.604C482.202 162.992 485.896 162.992 486.862 165.604L493.307 183.019C493.61 183.84 494.258 184.487 495.079 184.791L512.494 191.235C515.106 192.202 515.106 195.896 512.494 196.862L495.079 203.307C494.258 203.61 493.61 204.258 493.307 205.079L486.862 222.494C485.896 225.106 482.202 225.106 481.235 222.494L474.791 205.079C474.487 204.258 473.84 203.61 473.019 203.307L455.603 196.862C452.992 195.896 452.992 192.202 455.603 191.235L473.019 184.791C473.84 184.487 474.487 183.84 474.791 183.019L481.235 165.604Z" fill="black"/>
<path d="M132.324 141.132C132.418 141.103 132.518 141.095 132.624 141.107C132.743 141.114 132.851 141.155 132.946 141.228L141.021 147.859L140.473 148.004L143.514 138.014C143.601 137.768 143.755 137.626 143.977 137.588C144.138 137.539 144.29 137.558 144.434 137.646C144.587 137.717 144.69 137.839 144.743 138.013L148.654 150.872C148.703 151.032 148.685 151.191 148.602 151.349C148.518 151.506 148.389 151.611 148.215 151.664C148.027 151.721 147.855 151.707 147.697 151.624C147.54 151.54 147.437 151.417 147.388 151.257L143.85 139.624L144.224 139.554L141.481 148.795C141.466 148.888 141.426 148.973 141.362 149.051C141.294 149.115 141.204 149.157 141.093 149.177C141.003 149.218 140.905 149.234 140.799 149.222C140.703 149.193 140.615 149.146 140.537 149.082L133.069 142.859L133.372 142.482L137.001 154.416C137.05 154.577 137.033 154.736 136.949 154.893C136.878 155.046 136.756 155.149 136.582 155.202C136.408 155.255 136.249 155.237 136.105 155.149C135.961 155.061 135.865 154.937 135.816 154.776L131.905 141.918C131.856 141.757 131.867 141.6 131.937 141.447C132.021 141.29 132.15 141.185 132.324 141.132Z" fill="#F4F4F4"/>
<path d="M157.21 137.712C157.384 137.659 157.543 137.676 157.687 137.764C157.844 137.848 157.949 137.977 158.002 138.151L160.752 147.192C160.801 147.353 160.783 147.512 160.7 147.669C160.616 147.826 160.493 147.929 160.333 147.978C160.159 148.031 159.993 148.016 159.836 147.932C159.692 147.844 159.595 147.72 159.547 147.559L158.819 145.168L159.112 144.903C159.226 145.278 159.235 145.693 159.139 146.146C159.056 146.596 158.885 147.043 158.625 147.488C158.365 147.933 158.02 148.338 157.59 148.703C157.169 149.05 156.677 149.31 156.114 149.481C155.203 149.758 154.315 149.772 153.449 149.523C152.597 149.27 151.839 148.798 151.175 148.108C150.525 147.413 150.045 146.556 149.735 145.538C149.417 144.494 149.346 143.513 149.521 142.596C149.692 141.667 150.063 140.866 150.634 140.195C151.205 139.523 151.94 139.051 152.837 138.778C153.413 138.603 153.98 138.541 154.536 138.591C155.106 138.637 155.632 138.777 156.113 139.011C156.594 139.245 157.004 139.56 157.343 139.954C157.692 140.331 157.94 140.76 158.086 141.242L157.573 141.069L156.797 138.518C156.744 138.344 156.753 138.18 156.823 138.027C156.907 137.87 157.036 137.765 157.21 137.712ZM155.873 148.325C156.582 148.109 157.157 147.737 157.596 147.208C158.031 146.666 158.305 146.027 158.418 145.29C158.539 144.536 158.478 143.757 158.234 142.954C157.993 142.163 157.617 141.502 157.104 140.971C156.604 140.435 156.023 140.063 155.36 139.855C154.697 139.647 154.01 139.651 153.3 139.867C152.604 140.079 152.029 140.451 151.576 140.984C151.137 141.512 150.853 142.14 150.723 142.867C150.606 143.591 150.672 144.361 150.921 145.178C151.165 145.982 151.541 146.665 152.049 147.227C152.566 147.772 153.156 148.149 153.819 148.357C154.478 148.552 155.163 148.541 155.873 148.325Z" fill="#F4F4F4"/>
<path d="M162.619 145.505C162.463 145.377 162.363 145.239 162.318 145.092C162.282 144.927 162.331 144.773 162.463 144.631C162.542 144.504 162.65 144.427 162.788 144.4C162.939 144.369 163.094 144.395 163.251 144.479C163.755 144.838 164.307 145.087 164.905 145.227C165.513 145.349 166.172 145.302 166.882 145.087C167.257 144.972 167.607 144.8 167.932 144.57C168.266 144.322 168.515 144.034 168.679 143.706C168.839 143.365 168.857 142.993 168.735 142.591C168.609 142.176 168.386 141.878 168.068 141.697C167.749 141.516 167.374 141.41 166.94 141.381C166.52 141.348 166.08 141.343 165.619 141.366C165.127 141.384 164.644 141.385 164.17 141.368C163.693 141.337 163.252 141.259 162.848 141.133C162.453 140.99 162.105 140.781 161.802 140.508C161.499 140.234 161.274 139.856 161.128 139.374C160.957 138.811 160.96 138.269 161.138 137.746C161.315 137.224 161.629 136.763 162.078 136.363C162.54 135.959 163.106 135.655 163.776 135.451C164.111 135.35 164.487 135.286 164.904 135.262C165.317 135.224 165.741 135.249 166.177 135.336C166.613 135.423 167.032 135.595 167.432 135.854C167.589 135.938 167.693 136.06 167.741 136.221C167.786 136.368 167.76 136.522 167.663 136.684C167.58 136.797 167.465 136.876 167.318 136.92C167.184 136.961 167.054 136.942 166.927 136.864C166.496 136.6 166.031 136.441 165.531 136.388C165.032 136.335 164.528 136.386 164.019 136.541C163.631 136.659 163.283 136.838 162.976 137.078C162.677 137.3 162.453 137.573 162.303 137.897C162.152 138.221 162.14 138.59 162.267 139.005C162.412 139.386 162.641 139.66 162.956 139.827C163.284 139.991 163.673 140.092 164.124 140.131C164.588 140.165 165.095 140.172 165.644 140.151C166.106 140.128 166.553 140.131 166.986 140.16C167.433 140.185 167.838 140.267 168.202 140.405C168.575 140.526 168.9 140.727 169.176 141.009C169.465 141.287 169.687 141.68 169.842 142.189C170.021 142.778 170.008 143.338 169.804 143.869C169.613 144.395 169.277 144.856 168.797 145.25C168.318 145.645 167.743 145.944 167.073 146.148C166.35 146.368 165.604 146.441 164.835 146.368C164.08 146.29 163.341 146.002 162.619 145.505Z" fill="#F4F4F4"/>
<path d="M168.94 134.188L173.621 132.765C173.782 132.716 173.934 132.735 174.078 132.823C174.217 132.898 174.312 133.015 174.361 133.176C174.405 133.323 174.391 133.467 174.316 133.607C174.241 133.746 174.124 133.841 173.963 133.89L169.282 135.313C169.121 135.362 168.964 135.351 168.811 135.281C168.667 135.193 168.573 135.075 168.528 134.928C168.479 134.767 168.492 134.617 168.567 134.477C168.655 134.333 168.779 134.237 168.94 134.188ZM170.147 130.726C170.322 130.673 170.481 130.691 170.624 130.779C170.782 130.862 170.885 130.985 170.933 131.145L174.001 141.231C174.115 141.606 174.247 141.873 174.398 142.032C174.562 142.187 174.735 142.274 174.916 142.292C175.093 142.297 175.262 142.274 175.423 142.226C175.53 142.193 175.62 142.151 175.692 142.1C175.773 142.031 175.868 141.981 175.975 141.948C176.095 141.911 176.21 141.928 176.319 141.997C176.441 142.062 176.525 142.168 176.57 142.316C176.627 142.503 176.568 142.697 176.395 142.896C176.217 143.081 175.981 143.219 175.686 143.309C175.566 143.345 175.383 143.394 175.138 143.454C174.889 143.5 174.618 143.502 174.327 143.459C174.032 143.402 173.748 143.24 173.477 142.971C173.218 142.699 172.997 142.261 172.814 141.658L169.728 131.512C169.679 131.351 169.69 131.194 169.76 131.041C169.844 130.884 169.973 130.779 170.147 130.726Z" fill="#F4F4F4"/>
<path d="M183.723 141.084C182.692 141.398 181.714 141.454 180.789 141.252C179.865 141.05 179.061 140.622 178.379 139.966C177.696 139.31 177.194 138.453 176.873 137.395C176.526 136.256 176.452 135.218 176.65 134.28C176.86 133.338 177.256 132.544 177.835 131.9C178.424 131.238 179.12 130.785 179.924 130.54C180.513 130.361 181.115 130.295 181.73 130.342C182.353 130.372 182.943 130.529 183.497 130.814C184.062 131.082 184.561 131.471 184.994 131.983C185.441 132.491 185.797 133.129 186.06 133.898C186.095 134.063 186.071 134.224 185.987 134.381C185.899 134.525 185.775 134.621 185.614 134.67L177.557 137.121L176.986 136.109L184.902 133.701L184.714 134.022L184.592 133.62C184.347 133.007 183.983 132.532 183.501 132.196C183.018 131.86 182.494 131.654 181.929 131.577C181.365 131.5 180.814 131.543 180.278 131.706C179.877 131.828 179.486 132.034 179.106 132.325C178.74 132.612 178.435 132.983 178.193 133.437C177.96 133.874 177.818 134.393 177.767 134.994C177.711 135.581 177.793 136.237 178.013 136.96C178.254 137.75 178.632 138.418 179.149 138.963C179.666 139.508 180.283 139.877 181 140.068C181.73 140.256 182.517 140.222 183.361 139.965C183.83 139.822 184.231 139.627 184.566 139.379C184.9 139.131 185.175 138.857 185.391 138.557C185.603 138.244 185.767 137.938 185.881 137.64C185.991 137.475 186.12 137.37 186.268 137.325C186.402 137.284 186.532 137.303 186.658 137.382C186.798 137.456 186.888 137.561 186.929 137.695C186.978 137.855 186.954 138.016 186.856 138.178C186.601 138.782 186.207 139.363 185.674 139.92C185.137 140.464 184.487 140.852 183.723 141.084Z" fill="#F4F4F4"/>
<path d="M190.582 138.778C190.395 138.835 190.229 138.82 190.085 138.732C189.942 138.644 189.845 138.52 189.796 138.359L187.059 129.358C187.01 129.197 187.021 129.04 187.091 128.887C187.175 128.73 187.304 128.625 187.478 128.572C187.652 128.519 187.811 128.536 187.955 128.624C188.112 128.708 188.215 128.831 188.264 128.991L189.181 132.005L188.898 132.157C188.795 131.676 188.769 131.179 188.818 130.667C188.876 130.137 189.014 129.627 189.23 129.137C189.447 128.646 189.746 128.211 190.129 127.832C190.524 127.448 191.01 127.169 191.586 126.993C191.827 126.92 192.077 126.902 192.338 126.94C192.594 126.965 192.757 127.091 192.826 127.319C192.887 127.52 192.88 127.69 192.806 127.83C192.731 127.969 192.62 128.062 192.473 128.106C192.352 128.143 192.208 128.15 192.041 128.128C191.886 128.102 191.695 128.124 191.468 128.193C191.092 128.307 190.752 128.535 190.446 128.877C190.136 129.205 189.884 129.603 189.69 130.072C189.496 130.541 189.377 131.038 189.332 131.564C189.296 132.072 189.35 132.561 189.492 133.03L191.002 137.992C191.051 138.153 191.033 138.312 190.949 138.469C190.865 138.626 190.743 138.729 190.582 138.778Z" fill="#F4F4F4"/>
<path d="M198.627 125.159L203.308 123.736C203.469 123.687 203.621 123.706 203.765 123.794C203.905 123.869 203.999 123.986 204.048 124.147C204.093 124.294 204.078 124.438 204.003 124.578C203.929 124.717 203.811 124.812 203.65 124.861L198.969 126.284C198.808 126.333 198.651 126.322 198.498 126.252C198.354 126.164 198.26 126.046 198.215 125.899C198.166 125.738 198.179 125.588 198.254 125.448C198.342 125.305 198.466 125.208 198.627 125.159ZM199.835 121.697C200.009 121.644 200.168 121.662 200.312 121.75C200.469 121.833 200.572 121.956 200.621 122.116L203.688 132.202C203.802 132.577 203.935 132.844 204.086 133.003C204.25 133.158 204.422 133.245 204.603 133.263C204.78 133.268 204.949 133.246 205.11 133.197C205.217 133.164 205.307 133.122 205.379 133.071C205.461 133.002 205.555 132.952 205.662 132.919C205.783 132.882 205.897 132.899 206.006 132.968C206.129 133.033 206.212 133.139 206.257 133.287C206.314 133.474 206.256 133.668 206.082 133.867C205.904 134.053 205.668 134.19 205.374 134.28C205.253 134.316 205.07 134.365 204.825 134.425C204.576 134.471 204.306 134.473 204.014 134.43C203.719 134.373 203.436 134.211 203.164 133.942C202.905 133.67 202.684 133.232 202.501 132.629L199.415 122.483C199.366 122.322 199.377 122.165 199.448 122.012C199.532 121.855 199.661 121.75 199.835 121.697Z" fill="#F4F4F4"/>
<path d="M210.341 121.465C211.185 121.208 211.923 121.181 212.555 121.384C213.188 121.587 213.718 121.96 214.147 122.502C214.588 123.041 214.923 123.686 215.152 124.436L216.881 130.122C216.93 130.282 216.912 130.441 216.828 130.598C216.744 130.756 216.622 130.859 216.461 130.908C216.274 130.965 216.108 130.949 215.964 130.861C215.821 130.773 215.724 130.649 215.675 130.488L213.946 124.802C213.779 124.253 213.541 123.784 213.233 123.395C212.938 123.002 212.564 122.735 212.111 122.595C211.655 122.441 211.112 122.46 210.482 122.651C209.92 122.822 209.425 123.119 208.997 123.542C208.579 123.947 208.283 124.417 208.109 124.953C207.936 125.489 207.932 126.031 208.1 126.58L209.829 132.266C209.878 132.427 209.86 132.586 209.776 132.743C209.692 132.9 209.57 133.004 209.409 133.052C209.222 133.109 209.056 133.094 208.912 133.006C208.769 132.918 208.672 132.794 208.623 132.633L204.468 118.971C204.419 118.81 204.43 118.653 204.501 118.5C204.584 118.343 204.713 118.238 204.888 118.185C205.062 118.132 205.221 118.149 205.365 118.237C205.522 118.321 205.625 118.444 205.674 118.604L207.653 125.114L207.405 125.958C207.306 125.534 207.311 125.094 207.42 124.636C207.539 124.161 207.739 123.712 208.021 123.29C208.298 122.855 208.638 122.48 209.04 122.168C209.439 121.842 209.872 121.608 210.341 121.465Z" fill="#F4F4F4"/>
<path d="M224.526 128.674C223.495 128.988 222.517 129.044 221.592 128.842C220.667 128.641 219.864 128.212 219.181 127.556C218.499 126.9 217.997 126.043 217.675 124.985C217.329 123.847 217.255 122.808 217.452 121.87C217.663 120.928 218.058 120.135 218.638 119.49C219.227 118.828 219.923 118.375 220.727 118.131C221.316 117.951 221.918 117.885 222.532 117.933C223.156 117.963 223.745 118.12 224.3 118.405C224.864 118.672 225.363 119.062 225.797 119.574C226.244 120.082 226.599 120.72 226.862 121.489C226.898 121.653 226.874 121.814 226.79 121.972C226.702 122.115 226.577 122.212 226.417 122.261L218.36 124.711L217.789 123.699L225.705 121.292L225.517 121.612L225.395 121.211C225.15 120.597 224.786 120.123 224.303 119.787C223.821 119.451 223.297 119.244 222.732 119.167C222.167 119.09 221.617 119.133 221.081 119.296C220.679 119.418 220.289 119.625 219.909 119.916C219.542 120.203 219.238 120.574 218.996 121.028C218.763 121.464 218.621 121.983 218.569 122.584C218.514 123.172 218.596 123.827 218.816 124.55C219.056 125.341 219.435 126.008 219.952 126.554C220.469 127.099 221.086 127.467 221.803 127.659C222.533 127.846 223.32 127.812 224.164 127.555C224.633 127.413 225.034 127.217 225.368 126.969C225.703 126.721 225.978 126.448 226.194 126.148C226.406 125.834 226.569 125.529 226.683 125.231C226.794 125.065 226.923 124.96 227.07 124.915C227.204 124.875 227.334 124.894 227.461 124.972C227.601 125.047 227.691 125.151 227.732 125.285C227.78 125.446 227.756 125.607 227.659 125.768C227.404 126.372 227.01 126.953 226.477 127.51C225.94 128.054 225.29 128.442 224.526 128.674Z" fill="#F4F4F4"/>
<path d="M241.17 112.177C241.344 112.124 241.503 112.141 241.647 112.229C241.804 112.313 241.909 112.442 241.962 112.616L244.712 121.657C244.761 121.818 244.743 121.977 244.659 122.134C244.576 122.291 244.453 122.394 244.292 122.443C244.118 122.496 243.953 122.481 243.795 122.397C243.652 122.309 243.555 122.185 243.506 122.024L242.779 119.633L243.072 119.368C243.186 119.743 243.195 120.158 243.099 120.611C243.016 121.061 242.845 121.508 242.585 121.953C242.325 122.398 241.98 122.803 241.55 123.168C241.129 123.515 240.637 123.775 240.074 123.946C239.163 124.223 238.275 124.237 237.409 123.988C236.557 123.735 235.799 123.263 235.135 122.572C234.485 121.878 234.005 121.021 233.695 120.003C233.377 118.959 233.306 117.978 233.481 117.061C233.651 116.131 234.023 115.331 234.594 114.659C235.165 113.988 235.9 113.516 236.797 113.243C237.373 113.068 237.939 113.005 238.496 113.056C239.066 113.102 239.592 113.242 240.073 113.476C240.554 113.71 240.964 114.024 241.303 114.419C241.652 114.796 241.9 115.225 242.046 115.707L241.533 115.534L240.757 112.983C240.704 112.809 240.712 112.645 240.783 112.492C240.867 112.335 240.996 112.229 241.17 112.177ZM239.832 122.79C240.542 122.574 241.117 122.202 241.556 121.673C241.991 121.131 242.265 120.492 242.377 119.755C242.499 119.001 242.438 118.222 242.194 117.419C241.953 116.628 241.577 115.967 241.064 115.435C240.564 114.9 239.983 114.528 239.32 114.32C238.656 114.112 237.97 114.116 237.26 114.332C236.563 114.543 235.989 114.916 235.536 115.448C235.097 115.977 234.813 116.605 234.683 117.332C234.566 118.056 234.632 118.826 234.88 119.643C235.125 120.446 235.501 121.13 236.008 121.692C236.525 122.237 237.116 122.614 237.779 122.822C238.438 123.017 239.122 123.006 239.832 122.79Z" fill="#F4F4F4"/>
<path d="M248.259 121.237C248.072 121.294 247.906 121.278 247.762 121.19C247.619 121.102 247.522 120.978 247.473 120.817L244.736 111.816C244.687 111.656 244.698 111.499 244.768 111.346C244.852 111.188 244.981 111.083 245.155 111.03C245.329 110.977 245.488 110.995 245.632 111.083C245.789 111.167 245.892 111.289 245.941 111.45L246.858 114.463L246.575 114.615C246.472 114.134 246.446 113.638 246.495 113.125C246.553 112.595 246.691 112.085 246.907 111.595C247.124 111.105 247.424 110.67 247.806 110.29C248.201 109.906 248.687 109.627 249.263 109.452C249.504 109.379 249.755 109.361 250.015 109.399C250.271 109.423 250.434 109.549 250.503 109.777C250.564 109.978 250.557 110.148 250.483 110.288C250.408 110.428 250.297 110.52 250.15 110.565C250.029 110.602 249.885 110.609 249.718 110.587C249.563 110.56 249.372 110.582 249.145 110.651C248.77 110.765 248.429 110.993 248.123 111.335C247.813 111.663 247.562 112.062 247.368 112.531C247.174 112.999 247.054 113.497 247.009 114.022C246.973 114.531 247.027 115.019 247.17 115.488L248.679 120.451C248.728 120.611 248.71 120.77 248.626 120.928C248.542 121.085 248.42 121.188 248.259 121.237Z" fill="#F4F4F4"/>
<path d="M251.212 109.166L255.893 107.743C256.054 107.694 256.206 107.713 256.35 107.801C256.49 107.876 256.584 107.993 256.633 108.154C256.678 108.301 256.663 108.445 256.588 108.585C256.514 108.724 256.396 108.819 256.236 108.868L251.554 110.291C251.394 110.34 251.237 110.329 251.083 110.259C250.94 110.171 250.845 110.053 250.8 109.906C250.752 109.745 250.764 109.595 250.839 109.455C250.927 109.312 251.051 109.215 251.212 109.166ZM252.42 105.704C252.594 105.651 252.753 105.669 252.897 105.757C253.054 105.84 253.157 105.963 253.206 106.123L256.273 116.209C256.387 116.584 256.52 116.851 256.671 117.01C256.835 117.165 257.007 117.252 257.189 117.27C257.366 117.275 257.535 117.252 257.695 117.204C257.802 117.171 257.892 117.129 257.964 117.078C258.046 117.009 258.14 116.959 258.247 116.926C258.368 116.889 258.483 116.906 258.591 116.975C258.714 117.04 258.797 117.146 258.842 117.294C258.899 117.481 258.841 117.675 258.667 117.874C258.49 118.059 258.254 118.197 257.959 118.287C257.838 118.323 257.655 118.372 257.41 118.432C257.161 118.478 256.891 118.48 256.6 118.437C256.304 118.38 256.021 118.218 255.749 117.949C255.49 117.677 255.27 117.239 255.086 116.636L252 106.49C251.952 106.329 251.962 106.172 252.033 106.019C252.117 105.862 252.246 105.757 252.42 105.704Z" fill="#F4F4F4"/>
<path d="M274.483 107.642C274.792 108.66 274.85 109.645 274.657 110.596C274.459 111.534 274.05 112.354 273.429 113.055C272.804 113.742 272.003 114.235 271.025 114.532C270.074 114.822 269.141 114.857 268.226 114.637C267.32 114.401 266.517 113.95 265.817 113.285C265.126 112.602 264.626 111.752 264.317 110.734C264.003 109.703 263.945 108.718 264.143 107.78C264.354 106.838 264.769 106.016 265.39 105.315C266.025 104.61 266.817 104.113 267.768 103.824C268.746 103.526 269.688 103.496 270.594 103.732C271.5 103.969 272.296 104.422 272.983 105.091C273.669 105.76 274.169 106.611 274.483 107.642ZM273.277 108.009C273.029 107.192 272.641 106.519 272.115 105.992C271.585 105.451 270.97 105.089 270.271 104.906C269.581 104.707 268.861 104.721 268.11 104.949C267.387 105.169 266.788 105.556 266.313 106.11C265.833 106.651 265.517 107.296 265.364 108.045C265.221 108.776 265.274 109.55 265.522 110.367C265.771 111.184 266.158 111.857 266.684 112.384C267.224 112.908 267.846 113.268 268.549 113.464C269.248 113.646 269.96 113.627 270.683 113.407C271.433 113.179 272.041 112.797 272.507 112.26C272.982 111.706 273.292 111.063 273.435 110.331C273.578 109.6 273.526 108.826 273.277 108.009Z" fill="#F4F4F4"/>
<path d="M277.427 96.2108C277.628 96.1497 277.848 96.1047 278.088 96.0756C278.341 96.0424 278.571 96.053 278.778 96.1072C278.981 96.148 279.113 96.2688 279.174 96.4697C279.219 96.6171 279.206 96.7673 279.135 96.9204C279.061 97.0602 278.956 97.1504 278.823 97.1912C278.689 97.2319 278.511 97.2493 278.29 97.2435C278.064 97.2242 277.838 97.2492 277.61 97.3185C277.329 97.404 277.108 97.5443 276.948 97.7393C276.784 97.921 276.685 98.1487 276.651 98.4224C276.613 98.6826 276.645 98.9802 276.747 99.3151L280.254 110.848C280.303 111.008 280.285 111.167 280.202 111.324C280.131 111.478 280.009 111.581 279.835 111.634C279.661 111.687 279.495 111.671 279.338 111.587C279.194 111.499 279.097 111.375 279.049 111.214L275.541 99.6817C275.28 98.8245 275.329 98.0928 275.686 97.4867C276.056 96.8765 276.637 96.4512 277.427 96.2108ZM279.626 100.7C279.787 100.651 279.937 100.664 280.077 100.739C280.217 100.813 280.311 100.931 280.36 101.092C280.409 101.252 280.396 101.403 280.321 101.542C280.247 101.682 280.129 101.776 279.968 101.825L275.046 103.322C274.899 103.367 274.749 103.354 274.595 103.284C274.452 103.196 274.357 103.078 274.312 102.931C274.259 102.757 274.272 102.606 274.351 102.48C274.439 102.336 274.557 102.242 274.704 102.197L279.626 100.7Z" fill="#F4F4F4"/>
<path d="M296.746 92.2669C296.939 92.3251 297.076 92.4373 297.155 92.6032C297.231 92.7558 297.24 92.9288 297.181 93.1221C297.124 93.2711 297.024 93.3748 296.881 93.433C296.738 93.4912 296.589 93.5072 296.435 93.4809C295.824 93.3009 295.195 93.2067 294.549 93.1984C293.916 93.1861 293.264 93.2818 292.595 93.4854C291.778 93.7339 291.059 94.1135 290.439 94.624C289.828 95.1172 289.345 95.7177 288.989 96.4258C288.63 97.1204 288.415 97.8809 288.344 98.7072C288.287 99.5294 288.393 100.383 288.662 101.267C288.939 102.177 289.339 102.963 289.861 103.623C290.38 104.271 290.982 104.782 291.667 105.159C292.366 105.532 293.107 105.753 293.889 105.823C294.671 105.892 295.463 105.805 296.267 105.56C296.923 105.361 297.511 105.08 298.03 104.717C298.562 104.35 299.034 103.929 299.445 103.452C299.555 103.331 299.687 103.262 299.843 103.244C300.008 103.208 300.157 103.243 300.292 103.349C300.457 103.459 300.546 103.608 300.559 103.794C300.581 103.963 300.533 104.117 300.414 104.255C300.144 104.571 299.81 104.893 299.412 105.219C299.013 105.545 298.576 105.839 298.1 106.101C297.627 106.376 297.137 106.591 296.628 106.746C295.663 107.039 294.706 107.14 293.756 107.048C292.807 106.957 291.908 106.696 291.06 106.266C290.208 105.823 289.46 105.216 288.816 104.446C288.186 103.672 287.706 102.743 287.376 101.658C287.058 100.613 286.948 99.6002 287.044 98.6196C287.137 97.6256 287.407 96.7093 287.855 95.8709C288.302 95.0324 288.899 94.302 289.647 93.6797C290.394 93.0573 291.256 92.5974 292.234 92.3C292.998 92.0679 293.767 91.951 294.542 91.9494C295.317 91.9478 296.052 92.0536 296.746 92.2669Z" fill="#F4F4F4"/>
<path d="M304.004 103.624C304.053 103.785 304.036 103.944 303.952 104.101C303.868 104.258 303.746 104.361 303.585 104.41C303.411 104.463 303.245 104.448 303.088 104.364C302.944 104.276 302.848 104.152 302.799 103.991L298.644 90.3288C298.595 90.168 298.612 90.0091 298.696 89.8518C298.78 89.6946 298.902 89.5916 299.063 89.5427C299.237 89.4897 299.396 89.5072 299.54 89.5952C299.697 89.6791 299.8 89.8014 299.849 89.9621L304.004 103.624Z" fill="#F4F4F4"/>
<path d="M308.072 102.387C308.121 102.548 308.104 102.707 308.02 102.864C307.936 103.021 307.813 103.124 307.653 103.173C307.479 103.226 307.313 103.211 307.156 103.127C307.012 103.039 306.916 102.914 306.867 102.754L304.056 93.5117C304.007 93.3509 304.018 93.194 304.088 93.0409C304.172 92.8837 304.301 92.7786 304.475 92.7256C304.649 92.6727 304.808 92.6902 304.952 92.7781C305.109 92.862 305.212 92.9843 305.261 93.145L308.072 102.387ZM304.066 91.3795C303.785 91.465 303.552 91.4699 303.368 91.3942C303.193 91.301 303.069 91.1338 302.996 90.8928L302.935 90.6918C302.861 90.4507 302.88 90.2475 302.991 90.0822C303.111 89.8993 303.305 89.7672 303.573 89.6857C303.827 89.6083 304.042 89.6162 304.216 89.7094C304.4 89.7852 304.529 89.9436 304.602 90.1847L304.664 90.3856C304.737 90.6267 304.72 90.8366 304.614 91.0154C304.516 91.1766 304.334 91.298 304.066 91.3795Z" fill="#F4F4F4"/>
<path d="M315.687 100.949C314.656 101.263 313.678 101.319 312.753 101.117C311.829 100.915 311.025 100.487 310.343 99.8307C309.66 99.1749 309.158 98.3179 308.836 97.2598C308.49 96.1213 308.416 95.083 308.613 94.1449C308.824 93.2027 309.22 92.4094 309.799 91.7649C310.388 91.1029 311.084 90.6497 311.888 90.4053C312.477 90.226 313.079 90.1601 313.694 90.2073C314.317 90.2372 314.907 90.3945 315.461 90.6794C316.026 90.9468 316.525 91.3364 316.958 91.8484C317.405 92.3563 317.761 92.9945 318.024 93.7633C318.059 93.9281 318.035 94.0891 317.951 94.2463C317.863 94.3901 317.739 94.4865 317.578 94.5353L309.521 96.9856L308.95 95.974L316.866 93.5665L316.678 93.887L316.556 93.4852C316.311 92.872 315.947 92.3973 315.465 92.0612C314.982 91.7251 314.458 91.5186 313.893 91.4416C313.329 91.3646 312.778 91.4076 312.242 91.5706C311.841 91.6928 311.45 91.8994 311.07 92.1905C310.704 92.4775 310.399 92.8481 310.157 93.3023C309.924 93.739 309.782 94.2578 309.731 94.8587C309.675 95.4463 309.757 96.1017 309.977 96.825C310.218 97.6153 310.596 98.283 311.113 98.8281C311.63 99.3733 312.247 99.7417 312.964 99.9335C313.694 100.121 314.481 100.087 315.325 99.83C315.794 99.6874 316.195 99.4921 316.53 99.2441C316.864 98.9961 317.139 98.7222 317.355 98.4223C317.567 98.1091 317.731 97.8034 317.845 97.5052C317.955 97.3399 318.084 97.2348 318.232 97.19C318.366 97.1493 318.496 97.1682 318.622 97.2468C318.762 97.3214 318.852 97.4257 318.893 97.5596C318.942 97.7203 318.918 97.8813 318.82 98.0426C318.565 98.647 318.171 99.2278 317.638 99.785C317.101 100.329 316.451 100.717 315.687 100.949Z" fill="#F4F4F4"/>
<path d="M323.59 86.8463C324.474 86.5775 325.232 86.5444 325.864 86.7472C326.506 86.9325 327.034 87.2986 327.45 87.8455C327.874 88.3749 328.198 89.0079 328.422 89.7446L330.219 95.6515C330.268 95.8122 330.25 95.9712 330.166 96.1284C330.082 96.2856 329.96 96.3887 329.799 96.4375C329.612 96.4946 329.446 96.4791 329.302 96.3912C329.158 96.3032 329.062 96.1788 329.013 96.0181L327.235 90.1715C327.072 89.6358 326.836 89.1734 326.528 88.7843C326.219 88.3952 325.823 88.1279 325.34 87.9822C324.87 87.8325 324.314 87.8554 323.671 88.0509C323.095 88.2261 322.586 88.527 322.146 88.9538C321.718 89.3765 321.411 89.8577 321.224 90.3975C321.037 90.9372 321.025 91.475 321.188 92.0108L322.966 97.8574C323.015 98.0181 322.997 98.1771 322.913 98.3343C322.829 98.4915 322.707 98.5945 322.546 98.6434C322.359 98.7005 322.193 98.685 322.049 98.597C321.906 98.5091 321.809 98.3847 321.76 98.224L319.023 89.2231C318.974 89.0624 318.985 88.9054 319.055 88.7523C319.139 88.5951 319.268 88.49 319.442 88.437C319.616 88.3841 319.775 88.4016 319.919 88.4895C320.076 88.5734 320.179 88.6957 320.228 88.8565L320.742 90.5441L320.499 91.408C320.396 90.9712 320.406 90.5219 320.529 90.0602C320.661 89.5809 320.874 89.1282 321.169 88.702C321.46 88.2624 321.813 87.8843 322.229 87.5676C322.654 87.2334 323.108 86.993 323.59 86.8463Z" fill="#F4F4F4"/>
<path d="M329.384 85.3915L334.065 83.9677C334.226 83.9189 334.378 83.9384 334.522 84.0263C334.662 84.1009 334.756 84.2186 334.805 84.3793C334.85 84.5266 334.835 84.6702 334.76 84.8099C334.686 84.9496 334.568 85.044 334.407 85.0928L329.726 86.5166C329.565 86.5655 329.408 86.5547 329.255 86.4842C329.111 86.3962 329.017 86.2786 328.972 86.1312C328.923 85.9705 328.936 85.8203 329.011 85.6805C329.099 85.5367 329.223 85.4404 329.384 85.3915ZM330.592 81.9292C330.766 81.8763 330.925 81.8938 331.069 81.9817C331.226 82.0656 331.329 82.1879 331.378 82.3486L334.445 92.4345C334.559 92.8095 334.692 93.0766 334.842 93.2356C335.007 93.3905 335.179 93.477 335.36 93.4951C335.537 93.4998 335.706 93.4777 335.867 93.4288C335.974 93.3962 336.064 93.3543 336.136 93.3031C336.218 93.2344 336.312 93.1837 336.419 93.1511C336.54 93.1145 336.654 93.1308 336.763 93.2001C336.886 93.2654 336.969 93.3717 337.014 93.519C337.071 93.7065 337.013 93.8998 336.839 94.099C336.661 94.2847 336.425 94.4224 336.131 94.512C336.01 94.5486 335.827 94.5969 335.582 94.6569C335.333 94.7034 335.063 94.7051 334.771 94.6619C334.476 94.6054 334.193 94.4429 333.921 94.1744C333.662 93.9018 333.441 93.4641 333.258 92.8614L330.172 82.7153C330.123 82.5545 330.134 82.3976 330.205 82.2445C330.289 82.0873 330.418 81.9822 330.592 81.9292Z" fill="#F4F4F4"/>
<path d="M345.64 91.6199C345.439 91.681 345.253 91.6716 345.083 91.5918C344.925 91.5079 344.822 91.3856 344.774 91.2249L340.863 78.3664C340.814 78.2057 340.831 78.0467 340.915 77.8895C340.999 77.7323 341.121 77.6292 341.282 77.5804L346.707 75.9305C347.47 75.6983 348.204 75.658 348.909 75.8095C349.609 75.9477 350.215 76.2538 350.725 76.7279C351.248 77.198 351.62 77.7946 351.84 78.5179C352.019 79.1073 352.077 79.6823 352.013 80.2431C351.95 80.8038 351.777 81.3174 351.494 81.7838C351.208 82.2368 350.848 82.617 350.414 82.9244L349.644 82.9172C350.152 82.8067 350.663 82.8269 351.177 82.9778C351.687 83.1153 352.143 83.3865 352.544 83.7913C352.954 84.1786 353.268 84.7051 353.485 85.3707C353.674 85.9426 353.837 86.3832 353.975 86.6924C354.126 86.9976 354.273 87.2162 354.416 87.3485C354.558 87.4807 354.718 87.5713 354.894 87.6202C355.052 87.6598 355.174 87.7472 355.259 87.8823C355.357 88.0134 355.386 88.1581 355.347 88.3165C355.326 88.4399 355.27 88.5447 355.179 88.6309C355.097 88.6996 355.003 88.7502 354.896 88.7828C354.789 88.8154 354.673 88.8212 354.55 88.8002C354.33 88.7501 354.085 88.6417 353.815 88.4751C353.558 88.3045 353.295 88.0185 353.027 87.6172C352.772 87.2119 352.524 86.6141 352.284 85.8238C352.125 85.3014 351.908 84.8993 351.632 84.6174C351.369 84.3314 351.077 84.1421 350.757 84.0495C350.445 83.9394 350.118 83.8997 349.777 83.9305C349.444 83.9438 349.137 83.9933 348.856 84.0788L344.175 85.5025L344.31 85.1541L346.039 90.8399C346.088 91.0006 346.077 91.1576 346.007 91.3107C345.936 91.4638 345.814 91.5669 345.64 91.6199ZM343.838 84.3975L348.881 82.8638C349.325 82.6851 349.708 82.4074 350.033 82.0307C350.353 81.6406 350.565 81.1812 350.667 80.6525C350.783 80.1197 350.75 79.5519 350.566 78.9492C350.334 78.1857 349.881 77.6356 349.208 77.2989C348.545 76.9447 347.797 76.8939 346.967 77.1465L342.165 78.6069L342.22 78.2828L344.145 84.6116L343.838 84.3975Z" fill="#F4F4F4"/>
<path d="M362.317 86.7671C361.286 87.0808 360.308 87.1368 359.383 86.9352C358.459 86.7335 357.655 86.3047 356.973 85.6489C356.29 84.9931 355.788 84.1361 355.466 83.078C355.12 81.9395 355.046 80.9012 355.243 79.9631C355.454 79.0209 355.85 78.2276 356.429 77.5831C357.018 76.9211 357.714 76.4679 358.518 76.2234C359.107 76.0442 359.709 75.9782 360.324 76.0255C360.947 76.0553 361.536 76.2127 362.091 76.4975C362.656 76.7649 363.155 77.1546 363.588 77.6666C364.035 78.1744 364.391 78.8127 364.654 79.5814C364.689 79.7462 364.665 79.9072 364.581 80.0645C364.493 80.2083 364.369 80.3046 364.208 80.3535L356.151 82.8038L355.58 81.7922L363.496 79.3847L363.308 79.7052L363.186 79.3034C362.941 78.6902 362.577 78.2155 362.095 77.8794C361.612 77.5433 361.088 77.3368 360.523 77.2598C359.958 77.1828 359.408 77.2258 358.872 77.3887C358.471 77.511 358.08 77.7176 357.7 78.0087C357.334 78.2957 357.029 78.6663 356.787 79.1205C356.554 79.5572 356.412 80.076 356.361 80.6769C356.305 81.2645 356.387 81.9199 356.607 82.6432C356.848 83.4334 357.226 84.1012 357.743 84.6463C358.26 85.1915 358.877 85.5599 359.594 85.7516C360.324 85.9393 361.111 85.9048 361.955 85.6481C362.424 85.5056 362.825 85.3103 363.16 85.0623C363.494 84.8143 363.769 84.5403 363.985 84.2405C364.197 83.9272 364.36 83.6215 364.475 83.3234C364.585 83.1581 364.714 83.053 364.862 83.0082C364.996 82.9674 365.126 82.9864 365.252 83.065C365.392 83.1396 365.482 83.2438 365.523 83.3778C365.572 83.5385 365.548 83.6995 365.45 83.8608C365.195 84.4652 364.801 85.046 364.268 85.6032C363.731 86.147 363.081 86.5349 362.317 86.7671Z" fill="#F4F4F4"/>
<path d="M364.8 74.6201L369.482 73.1963C369.642 73.1474 369.795 73.167 369.938 73.2549C370.078 73.3295 370.172 73.4471 370.221 73.6079C370.266 73.7552 370.251 73.8988 370.177 74.0385C370.102 74.1782 369.985 74.2726 369.824 74.3214L365.143 75.7452C364.982 75.7941 364.825 75.7833 364.672 75.7128C364.528 75.6248 364.434 75.5072 364.389 75.3598C364.34 75.1991 364.353 75.0489 364.427 74.9091C364.515 74.7653 364.64 74.669 364.8 74.6201ZM366.008 71.1578C366.182 71.1048 366.341 71.1224 366.485 71.2103C366.642 71.2942 366.745 71.4165 366.794 71.5772L369.862 81.6631C369.976 82.0381 370.108 82.3051 370.259 82.4641C370.423 82.6191 370.596 82.7056 370.777 82.7237C370.954 82.7284 371.123 82.7063 371.284 82.6574C371.391 82.6248 371.48 82.5829 371.553 82.5317C371.634 82.463 371.728 82.4123 371.836 82.3797C371.956 82.3431 372.071 82.3594 372.18 82.4287C372.302 82.494 372.386 82.6002 372.43 82.7476C372.487 82.9351 372.429 83.1284 372.256 83.3275C372.078 83.5133 371.842 83.6509 371.547 83.7406C371.427 83.7772 371.244 83.8255 370.999 83.8855C370.749 83.932 370.479 83.9337 370.188 83.8905C369.893 83.834 369.609 83.6715 369.337 83.403C369.079 83.1304 368.858 82.6927 368.675 82.09L365.589 71.9439C365.54 71.7831 365.551 71.6262 365.621 71.4731C365.705 71.3158 365.834 71.2108 366.008 71.1578Z" fill="#F4F4F4"/>
<path d="M379.584 81.5157C378.553 81.8294 377.575 81.8854 376.65 81.6837C375.725 81.4821 374.922 81.0533 374.24 80.3975C373.557 79.7416 373.055 78.8847 372.733 77.8265C372.387 76.688 372.313 75.6497 372.51 74.7116C372.721 73.7695 373.116 72.9761 373.696 72.3316C374.285 71.6696 374.981 71.2164 375.785 70.972C376.374 70.7928 376.976 70.7268 377.59 70.7741C378.214 70.8039 378.803 70.9612 379.358 71.2461C379.922 71.5135 380.421 71.9032 380.855 72.4151C381.302 72.923 381.657 73.5613 381.92 74.33C381.956 74.4948 381.932 74.6558 381.848 74.813C381.76 74.9568 381.635 75.0532 381.475 75.1021L373.418 77.5524L372.847 76.5408L380.763 74.1332L380.575 74.4538L380.453 74.0519C380.208 73.4387 379.844 72.964 379.361 72.628C378.879 72.2919 378.355 72.0853 377.79 72.0083C377.225 71.9314 376.675 71.9744 376.139 72.1373C375.737 72.2595 375.347 72.4662 374.967 72.7572C374.601 73.0443 374.296 73.4149 374.054 73.869C373.821 74.3057 373.679 74.8245 373.627 75.4255C373.572 76.013 373.654 76.6685 373.874 77.3917C374.114 78.182 374.493 78.8497 375.01 79.3949C375.527 79.94 376.144 80.3085 376.861 80.5002C377.591 80.6878 378.378 80.6533 379.222 80.3967C379.691 80.2541 380.092 80.0588 380.427 79.8108C380.761 79.5628 381.036 79.2889 381.252 78.989C381.464 78.6758 381.627 78.3701 381.741 78.072C381.852 77.9066 381.981 77.8015 382.128 77.7567C382.262 77.716 382.393 77.7349 382.519 77.8136C382.659 77.8881 382.749 77.9924 382.79 78.1263C382.838 78.2871 382.814 78.4481 382.717 78.6094C382.462 79.2138 382.068 79.7946 381.535 80.3517C380.998 80.8955 380.348 81.2835 379.584 81.5157Z" fill="#F4F4F4"/>
<path d="M387.487 67.4131C388.371 67.1442 389.129 67.1112 389.761 67.3139C390.403 67.4992 390.931 67.8653 391.346 68.4122C391.771 68.9416 392.095 69.5747 392.319 70.3114L394.116 76.2182C394.164 76.3789 394.147 76.5379 394.063 76.6951C393.979 76.8523 393.857 76.9554 393.696 77.0043C393.509 77.0613 393.343 77.0458 393.199 76.9579C393.055 76.8699 392.959 76.7456 392.91 76.5848L391.132 70.7383C390.969 70.2025 390.733 69.7401 390.425 69.351C390.116 68.962 389.72 68.6946 389.237 68.5489C388.767 68.3992 388.211 68.4221 387.568 68.6176C386.992 68.7928 386.483 69.0938 386.042 69.5205C385.615 69.9432 385.308 70.4244 385.12 70.9642C384.933 71.504 384.921 72.0418 385.084 72.5775L386.863 78.4241C386.911 78.5848 386.894 78.7438 386.81 78.901C386.726 79.0582 386.604 79.1613 386.443 79.2102C386.256 79.2672 386.09 79.2517 385.946 79.1638C385.802 79.0758 385.706 78.9515 385.657 78.7907L382.92 69.7898C382.871 69.6291 382.881 69.4721 382.952 69.319C383.036 69.1618 383.165 69.0567 383.339 69.0038C383.513 68.9508 383.672 68.9683 383.816 69.0563C383.973 69.1401 384.076 69.2624 384.125 69.4232L384.638 71.1109L384.396 71.9747C384.293 71.5379 384.302 71.0887 384.425 70.6269C384.558 70.1477 384.771 69.695 385.066 69.2688C385.356 68.8292 385.71 68.451 386.126 68.1343C386.551 67.8001 387.004 67.5597 387.487 67.4131Z" fill="#F4F4F4"/>
<path d="M393.281 65.9582L397.962 64.5345C398.123 64.4856 398.275 64.5051 398.419 64.5931C398.558 64.6677 398.653 64.7853 398.702 64.946C398.746 65.0934 398.732 65.2369 398.657 65.3766C398.582 65.5164 398.465 65.6107 398.304 65.6596L393.623 67.0833C393.462 67.1322 393.305 67.1214 393.152 67.0509C393.008 66.963 392.914 66.8453 392.869 66.698C392.82 66.5372 392.833 66.387 392.908 66.2473C392.995 66.1034 393.12 66.0071 393.281 65.9582ZM394.488 62.496C394.663 62.443 394.821 62.4605 394.965 62.5485C395.123 62.6323 395.226 62.7547 395.274 62.9154L398.342 73.0012C398.456 73.3763 398.588 73.6433 398.739 73.8023C398.903 73.9572 399.076 74.0437 399.257 74.0618C399.434 74.0665 399.603 74.0444 399.764 73.9955C399.871 73.9629 399.961 73.921 400.033 73.8698C400.114 73.8011 400.209 73.7505 400.316 73.7179C400.436 73.6812 400.551 73.6975 400.66 73.7669C400.782 73.8321 400.866 73.9384 400.911 74.0857C400.968 74.2732 400.909 74.4666 400.736 74.6657C400.558 74.8514 400.322 74.9891 400.027 75.0787C399.907 75.1154 399.724 75.1637 399.479 75.2236C399.23 75.2701 398.959 75.2718 398.668 75.2287C398.373 75.1721 398.089 75.0096 397.818 74.7411C397.559 74.4685 397.338 74.0309 397.155 73.4281L394.069 63.282C394.02 63.1213 394.031 62.9643 394.101 62.8112C394.185 62.654 394.314 62.5489 394.488 62.496Z" fill="#F4F4F4"/>
<path d="M404.442 73.0775C404.491 73.2382 404.474 73.3972 404.39 73.5544C404.306 73.7116 404.184 73.8146 404.023 73.8635C403.849 73.9165 403.683 73.901 403.526 73.8171C403.382 73.7292 403.286 73.6048 403.237 73.4441L400.426 64.2021C400.377 64.0414 400.388 63.8844 400.458 63.7313C400.542 63.5741 400.671 63.469 400.845 63.416C401.02 63.3631 401.179 63.3806 401.322 63.4685C401.48 63.5524 401.583 63.6747 401.631 63.8355L404.442 73.0775ZM400.436 62.0699C400.155 62.1555 399.922 62.1604 399.738 62.0846C399.563 61.9914 399.439 61.8243 399.366 61.5832L399.305 61.3823C399.232 61.1412 399.25 60.9379 399.361 60.7726C399.481 60.5897 399.675 60.4576 399.943 60.3761C400.197 60.2987 400.412 60.3066 400.587 60.3998C400.771 60.4756 400.899 60.634 400.973 60.8751L401.034 61.076C401.107 61.3171 401.09 61.527 400.984 61.7058C400.886 61.8671 400.704 61.9884 400.436 62.0699Z" fill="#F4F4F4"/>
<path d="M415.355 64.798C415.664 65.816 415.722 66.8007 415.529 67.7522C415.331 68.6903 414.922 69.5098 414.301 70.2108C413.676 70.8984 412.875 71.3909 411.897 71.6883C410.946 71.9775 410.013 72.0126 409.097 71.7934C408.191 71.5568 407.388 71.106 406.688 70.4408C405.998 69.7582 405.498 68.9079 405.188 67.8899C404.875 66.8586 404.817 65.8739 405.014 64.9358C405.225 63.9936 405.641 63.172 406.262 62.471C406.896 61.766 407.689 61.2688 408.64 60.9796C409.618 60.6822 410.56 60.6518 411.466 60.8884C412.372 61.125 413.168 61.5779 413.854 62.2472C414.541 62.9164 415.041 63.7667 415.355 64.798ZM414.149 65.1647C413.901 64.3476 413.513 63.6752 412.987 63.1476C412.456 62.6065 411.842 62.2447 411.142 62.0623C410.452 61.8625 409.732 61.8766 408.982 62.1047C408.259 62.3247 407.66 62.7118 407.184 63.2661C406.705 63.807 406.389 64.4518 406.236 65.2007C406.093 65.932 406.145 66.7063 406.394 67.5233C406.642 68.3403 407.03 69.0127 407.556 69.5404C408.096 70.064 408.717 70.4237 409.421 70.6195C410.12 70.8019 410.831 70.7831 411.555 70.5632C412.305 70.335 412.913 69.9526 413.379 69.4158C413.854 68.8615 414.163 68.2187 414.307 67.4873C414.45 66.7559 414.398 65.9817 414.149 65.1647Z" fill="#F4F4F4"/>
<path d="M420.725 57.304C421.609 57.0352 422.367 57.0021 423 57.2049C423.641 57.3902 424.17 57.7563 424.585 58.3032C425.009 58.8326 425.334 59.4656 425.558 60.2023L427.354 66.1092C427.403 66.2699 427.385 66.4289 427.302 66.5861C427.218 66.7433 427.095 66.8463 426.935 66.8952C426.747 66.9523 426.582 66.9368 426.438 66.8488C426.294 66.7609 426.198 66.6365 426.149 66.4758L424.37 60.6292C424.208 60.0935 423.972 59.631 423.663 59.242C423.355 58.8529 422.959 58.5856 422.475 58.4399C422.006 58.2902 421.449 58.313 420.806 58.5086C420.23 58.6838 419.722 58.9847 419.281 59.4115C418.853 59.8342 418.546 60.3154 418.359 60.8552C418.172 61.3949 418.16 61.9327 418.323 62.4685L420.101 68.3151C420.15 68.4758 420.133 68.6348 420.049 68.792C419.965 68.9492 419.842 69.0522 419.682 69.1011C419.494 69.1581 419.329 69.1427 419.185 69.0547C419.041 68.9668 418.945 68.8424 418.896 68.6817L416.158 59.6808C416.109 59.52 416.12 59.3631 416.191 59.21C416.274 59.0528 416.403 58.9477 416.578 58.8947C416.752 58.8418 416.911 58.8593 417.055 58.9472C417.212 59.0311 417.315 59.1534 417.364 59.3141L417.877 61.0018L417.635 61.8656C417.531 61.4289 417.541 60.9796 417.664 60.5179C417.796 60.0386 418.01 59.5859 418.304 59.1597C418.595 58.7201 418.948 58.342 419.364 58.0253C419.789 57.6911 420.243 57.4507 420.725 57.304Z" fill="#F4F4F4"/>
</svg>
