<svg width="236" height="234" viewBox="0 0 236 234" fill="none" xmlns="http://www.w3.org/2000/svg">
<path fill-rule="evenodd" clip-rule="evenodd" d="M126.679 85.6288C124.149 83.0987 120.578 82 117 82V82V82C114.152 82 111.334 82.9277 109.32 84.9411L99.3311 94.9302C98.9406 95.3207 98.3074 95.3207 97.9169 94.9302L69.2089 66.2222C68.8184 65.8317 68.8184 65.1986 69.2089 64.808L71.3157 62.7012C75.7543 58.2627 76.9014 51.6504 76.2341 45.4089C76.0793 43.9605 75.9998 42.4895 75.9998 41C75.9998 18.3563 94.3562 0 117 0C139.644 0 158 18.3563 158 41C158 42.237 157.945 43.4613 157.838 44.6704C157.296 50.7778 158.497 57.2019 162.832 61.5374L166.103 64.808C166.493 65.1986 166.493 65.8317 166.103 66.2223L137.395 94.9302C137.004 95.3208 136.371 95.3208 135.981 94.9302L126.679 85.6288Z" fill="#0E0E0E"/>
<path fill-rule="evenodd" clip-rule="evenodd" d="M126.763 147.594C124.233 150.124 120.662 151.223 117.084 151.223V151.223V151.223C114.236 151.223 111.418 150.295 109.404 148.282L99.4151 138.293C99.0246 137.902 98.3914 137.902 98.0009 138.293L69.2929 167.001C68.9024 167.391 68.9024 168.025 69.2929 168.415L71.3997 170.522C75.8383 174.96 76.9854 181.573 76.3181 187.814C76.1633 189.263 76.0838 190.734 76.0838 192.223C76.0838 214.867 94.4402 233.223 117.084 233.223C139.728 233.223 158.084 214.867 158.084 192.223C158.084 190.986 158.029 189.762 157.922 188.553C157.38 182.445 158.581 176.021 162.916 171.686L166.187 168.415C166.577 168.025 166.577 167.391 166.187 167.001L137.479 138.293C137.088 137.902 136.455 137.902 136.065 138.293L126.763 147.594Z" fill="#0E0E0E"/>
<path fill-rule="evenodd" clip-rule="evenodd" d="M85.6288 107.716C83.0987 110.246 82 113.818 82 117.396V117.396V117.396C82 120.243 82.9277 123.062 84.9411 125.075L94.9302 135.064C95.3207 135.455 95.3207 136.088 94.9302 136.479L66.2222 165.187C65.8317 165.577 65.1986 165.577 64.808 165.187L62.7012 163.08C58.2627 158.641 51.6504 157.494 45.4089 158.161C43.9605 158.316 42.4895 158.396 41 158.396C18.3563 158.396 -1.11202e-06 140.039 -2.10181e-06 117.396C-3.0916e-06 94.752 18.3563 76.3957 41 76.3957C42.237 76.3957 43.4613 76.4504 44.6704 76.5577C50.7778 77.0996 57.2019 75.8989 61.5374 71.5633L64.808 68.2927C65.1986 67.9022 65.8317 67.9022 66.2222 68.2927L94.9302 97.0007C95.3208 97.3912 95.3208 98.0244 94.9302 98.4149L85.6288 107.716Z" fill="#0E0E0E"/>
<path fill-rule="evenodd" clip-rule="evenodd" d="M149.594 107.716C152.124 110.246 153.223 113.817 153.223 117.396V117.396V117.396C153.223 120.243 152.295 123.061 150.282 125.074L140.292 135.064C139.901 135.455 139.901 136.088 140.292 136.479L169 165.187C169.39 165.577 170.024 165.577 170.414 165.187L172.521 163.08C176.96 158.641 183.572 157.494 189.814 158.161C191.262 158.316 192.733 158.396 194.223 158.396C216.866 158.396 235.223 140.039 235.223 117.396C235.223 94.752 216.866 76.3957 194.223 76.3957C192.986 76.3957 191.761 76.4504 190.552 76.5577C184.445 77.0995 178.021 75.8988 173.685 71.5633L170.415 68.2927C170.024 67.9022 169.391 67.9022 169.001 68.2927L140.293 97.0007C139.902 97.3912 139.902 98.0244 140.293 98.4149L149.594 107.716Z" fill="#0E0E0E"/>
<circle cx="117" cy="119" r="41" fill="#D5DDCC"/>
<path d="M95.343 108.856C95.343 111.004 100.287 109.312 100.287 112.648C100.287 114.256 98.979 115.156 97.191 115.156C95.379 115.156 94.131 114.328 93.795 112.624H95.199C95.427 113.548 96.111 114.052 97.203 114.052C98.319 114.052 98.907 113.56 98.907 112.828C98.907 110.524 93.963 112.24 93.963 108.964C93.963 107.74 94.995 106.684 96.855 106.684C98.463 106.684 99.783 107.452 100.071 109.24H98.643C98.415 108.232 97.779 107.788 96.819 107.788C95.883 107.788 95.343 108.208 95.343 108.856ZM107.167 112.912C106.819 114.4 105.715 115.156 104.215 115.156C102.331 115.156 101.179 113.896 101.179 111.808C101.179 109.636 102.331 108.436 104.155 108.436C106.003 108.436 107.119 109.684 107.119 111.736V112.048H102.487C102.559 113.356 103.171 114.088 104.215 114.088C105.031 114.088 105.607 113.704 105.823 112.912H107.167ZM104.155 109.504C103.231 109.504 102.679 110.092 102.523 111.172H105.787C105.631 110.092 105.067 109.504 104.155 109.504ZM108.405 115V108.604H109.689V109.552C110.109 108.784 110.769 108.436 111.513 108.436C111.765 108.436 112.005 108.496 112.125 108.604V109.732C111.933 109.672 111.705 109.648 111.441 109.648C110.217 109.648 109.689 110.392 109.689 111.508V115H108.405ZM114.619 115L112.267 108.604H113.647L115.291 113.356L115.447 113.968L115.603 113.356L117.235 108.604H118.543L116.191 115H114.619ZM119.374 107.812V106.36H120.658V107.812H119.374ZM119.374 115V108.604H120.658V115H119.374ZM127.622 110.836H126.338C126.182 109.924 125.594 109.516 124.85 109.516C123.782 109.516 123.206 110.332 123.206 111.808C123.206 113.26 123.806 114.088 124.886 114.088C125.654 114.088 126.194 113.668 126.386 112.852H127.658C127.382 114.448 126.278 115.156 124.862 115.156C123.014 115.156 121.898 113.884 121.898 111.808C121.898 109.636 123.038 108.436 124.85 108.436C126.278 108.436 127.406 109.24 127.622 110.836ZM134.53 112.912C134.182 114.4 133.078 115.156 131.578 115.156C129.694 115.156 128.542 113.896 128.542 111.808C128.542 109.636 129.694 108.436 131.518 108.436C133.366 108.436 134.482 109.684 134.482 111.736V112.048H129.85C129.922 113.356 130.534 114.088 131.578 114.088C132.394 114.088 132.97 113.704 133.186 112.912H134.53ZM131.518 109.504C130.594 109.504 130.042 110.092 129.886 111.172H133.15C132.994 110.092 132.43 109.504 131.518 109.504ZM136.788 110.284C136.788 111.916 140.88 110.548 140.88 113.152C140.88 114.364 139.788 115.156 138.24 115.156C136.692 115.156 135.6 114.436 135.36 112.912H136.644C136.776 113.716 137.376 114.16 138.276 114.16C139.14 114.16 139.596 113.776 139.596 113.236C139.596 111.64 135.564 112.984 135.564 110.356C135.564 109.36 136.344 108.436 137.964 108.436C139.392 108.436 140.448 109.096 140.652 110.692H139.368C139.224 109.792 138.72 109.456 137.904 109.456C137.196 109.456 136.788 109.804 136.788 110.284ZM102.434 131.156C99.9979 131.156 98.5099 129.548 98.5099 126.932C98.5099 124.316 99.9979 122.684 102.434 122.684C104.846 122.684 106.346 124.316 106.346 126.932C106.346 129.548 104.846 131.156 102.434 131.156ZM102.434 130.028C104.03 130.028 104.978 128.852 104.978 126.932C104.978 125 104.03 123.812 102.434 123.812C100.838 123.812 99.8779 125 99.8779 126.932C99.8779 128.852 100.838 130.028 102.434 130.028ZM106.994 125.6V124.604H107.858V124.268C107.858 122.876 108.446 122.204 109.646 122.204C109.97 122.204 110.222 122.264 110.354 122.324V123.188H110.234C109.346 123.188 109.13 123.548 109.13 124.28V124.604H110.354V125.6H109.13V131H107.858V125.6H106.994ZM110.427 125.6V124.604H111.291V124.268C111.291 122.876 111.879 122.204 113.079 122.204C113.403 122.204 113.655 122.264 113.787 122.324V123.188H113.667C112.779 123.188 112.563 123.548 112.563 124.28V124.604H113.787V125.6H112.563V131H111.291V125.6H110.427ZM120.257 128.912C119.909 130.4 118.805 131.156 117.305 131.156C115.421 131.156 114.269 129.896 114.269 127.808C114.269 125.636 115.421 124.436 117.245 124.436C119.093 124.436 120.209 125.684 120.209 127.736V128.048H115.577C115.649 129.356 116.261 130.088 117.305 130.088C118.121 130.088 118.697 129.704 118.913 128.912H120.257ZM117.245 125.504C116.321 125.504 115.769 126.092 115.613 127.172H118.877C118.721 126.092 118.157 125.504 117.245 125.504ZM121.495 131V124.604H122.779V125.552C123.199 124.784 123.859 124.436 124.603 124.436C124.855 124.436 125.095 124.496 125.215 124.604V125.732C125.023 125.672 124.795 125.648 124.531 125.648C123.307 125.648 122.779 126.392 122.779 127.508V131H121.495ZM131.647 128.912C131.299 130.4 130.195 131.156 128.695 131.156C126.811 131.156 125.659 129.896 125.659 127.808C125.659 125.636 126.811 124.436 128.635 124.436C130.483 124.436 131.599 125.684 131.599 127.736V128.048H126.967C127.039 129.356 127.651 130.088 128.695 130.088C129.511 130.088 130.087 129.704 130.303 128.912H131.647ZM128.635 125.504C127.711 125.504 127.159 126.092 127.003 127.172H130.267C130.111 126.092 129.547 125.504 128.635 125.504ZM135.285 131.156C133.593 131.156 132.573 129.896 132.573 127.808C132.573 125.636 133.617 124.436 135.285 124.436C136.017 124.436 136.617 124.736 137.025 125.324V122.36H138.309V131H137.025V130.22C136.617 130.82 136.017 131.156 135.285 131.156ZM135.453 130.076C136.473 130.076 137.025 129.284 137.025 127.808C137.025 126.344 136.449 125.516 135.453 125.516C134.433 125.516 133.881 126.332 133.881 127.808C133.881 129.26 134.457 130.076 135.453 130.076Z" fill="black"/>
<path d="M15.9921 122L14.6221 117.3L14.4621 116.7L14.3121 117.3L12.9421 122H11.6521L9.53215 115.2H10.7221L12.1821 120.27L12.3421 120.86L12.4821 120.27L13.9421 115.2H15.0521L16.5121 120.27L16.6621 120.86L16.8021 120.27L18.2521 115.2H19.3921L17.2721 122H15.9921ZM24.67 120.26C24.38 121.5 23.46 122.13 22.21 122.13C20.64 122.13 19.68 121.08 19.68 119.34C19.68 117.53 20.64 116.53 22.16 116.53C23.7 116.53 24.63 117.57 24.63 119.28V119.54H20.77C20.83 120.63 21.34 121.24 22.21 121.24C22.89 121.24 23.37 120.92 23.55 120.26H24.67ZM22.16 117.42C21.39 117.42 20.93 117.91 20.8 118.81H23.52C23.39 117.91 22.92 117.42 22.16 117.42ZM26.7718 122H25.7018V114.8H26.7718V117.29C27.1118 116.8 27.6118 116.53 28.2218 116.53C29.6218 116.53 30.4718 117.58 30.4718 119.32C30.4718 121.13 29.6018 122.13 28.2218 122.13C27.6118 122.13 27.1118 121.88 26.7718 121.4V122ZM28.0818 117.43C27.2218 117.43 26.7718 118.1 26.7718 119.32C26.7718 120.54 27.2418 121.23 28.0818 121.23C28.9218 121.23 29.3818 120.56 29.3818 119.32C29.3818 118.11 28.9118 117.43 28.0818 117.43ZM33.5552 122V115.2H35.8852C38.0152 115.2 39.3352 116.48 39.3352 118.61C39.3352 120.74 38.0152 122 35.8852 122H33.5552ZM35.8852 121.09C37.3352 121.09 38.1952 120.17 38.1952 118.61C38.1952 117.03 37.3352 116.11 35.8852 116.11H34.6752V121.09H35.8852ZM45.2169 120.26C44.9269 121.5 44.0069 122.13 42.7569 122.13C41.1869 122.13 40.2269 121.08 40.2269 119.34C40.2269 117.53 41.1869 116.53 42.7069 116.53C44.2469 116.53 45.1769 117.57 45.1769 119.28V119.54H41.3169C41.3769 120.63 41.8869 121.24 42.7569 121.24C43.4369 121.24 43.9169 120.92 44.0969 120.26H45.2169ZM42.7069 117.42C41.9369 117.42 41.4769 117.91 41.3469 118.81H44.0669C43.9369 117.91 43.4669 117.42 42.7069 117.42ZM47.0986 118.07C47.0986 119.43 50.5086 118.29 50.5086 120.46C50.5086 121.47 49.5986 122.13 48.3086 122.13C47.0186 122.13 46.1086 121.53 45.9086 120.26H46.9786C47.0886 120.93 47.5886 121.3 48.3386 121.3C49.0586 121.3 49.4386 120.98 49.4386 120.53C49.4386 119.2 46.0786 120.32 46.0786 118.13C46.0786 117.3 46.7286 116.53 48.0786 116.53C49.2686 116.53 50.1486 117.08 50.3186 118.41H49.2486C49.1286 117.66 48.7086 117.38 48.0286 117.38C47.4386 117.38 47.0986 117.67 47.0986 118.07ZM51.483 116.01V114.8H52.553V116.01H51.483ZM51.483 122V116.67H52.553V122H51.483ZM55.7663 122.03C54.4063 122.03 53.5863 120.99 53.5863 119.29C53.5863 117.51 54.4263 116.53 55.7663 116.53C56.4463 116.53 56.9563 116.77 57.2963 117.23V116.67H58.3663V122.17C58.3663 123.63 57.3963 124.34 56.1163 124.34C54.8363 124.34 53.9163 123.74 53.7263 122.5H54.7963C54.8963 123.14 55.4063 123.48 56.1063 123.48C56.8163 123.48 57.2963 123.11 57.2963 122.19V121.29C56.9363 121.78 56.4163 122.03 55.7663 122.03ZM55.9863 121.13C56.8363 121.13 57.2963 120.48 57.2963 119.28C57.2963 118.11 56.8163 117.43 55.9863 117.43C55.1363 117.43 54.6763 118.08 54.6763 119.29C54.6763 120.46 55.1463 121.13 55.9863 121.13ZM59.6666 122V116.67H60.7366V117.38C61.0966 116.81 61.6566 116.53 62.3466 116.53C63.4566 116.53 64.1466 117.18 64.1466 118.44V122H63.0866V118.66C63.0866 117.89 62.7466 117.42 62.0166 117.42C61.2166 117.42 60.7366 118.13 60.7366 118.87V122H59.6666Z" fill="#EAEAEA"/>
<path d="M176.81 122L176.23 120.47H173.13L172.55 122H171.43L174.05 115.2H175.36L177.98 122H176.81ZM174.48 116.94L173.47 119.59H175.89L174.88 116.94L174.68 116.28L174.48 116.94ZM179.874 124.2H178.804V116.67H179.874V117.31C180.214 116.81 180.714 116.53 181.324 116.53C182.734 116.53 183.584 117.58 183.584 119.32C183.584 121.13 182.714 122.13 181.324 122.13C180.714 122.13 180.214 121.88 179.874 121.39V124.2ZM181.194 117.43C180.334 117.43 179.874 118.1 179.874 119.32C179.874 120.54 180.354 121.23 181.194 121.23C182.034 121.23 182.494 120.55 182.494 119.32C182.494 118.11 182.014 117.43 181.194 117.43ZM185.695 124.2H184.625V116.67H185.695V117.31C186.035 116.81 186.535 116.53 187.145 116.53C188.555 116.53 189.405 117.58 189.405 119.32C189.405 121.13 188.535 122.13 187.145 122.13C186.535 122.13 186.035 121.88 185.695 121.39V124.2ZM187.015 117.43C186.155 117.43 185.695 118.1 185.695 119.32C185.695 120.54 186.175 121.23 187.015 121.23C187.855 121.23 188.315 120.55 188.315 119.32C188.315 118.11 187.835 117.43 187.015 117.43ZM192.488 122V115.2H194.818C196.948 115.2 198.268 116.48 198.268 118.61C198.268 120.74 196.948 122 194.818 122H192.488ZM194.818 121.09C196.268 121.09 197.128 120.17 197.128 118.61C197.128 117.03 196.268 116.11 194.818 116.11H193.608V121.09H194.818ZM204.15 120.26C203.86 121.5 202.94 122.13 201.69 122.13C200.12 122.13 199.16 121.08 199.16 119.34C199.16 117.53 200.12 116.53 201.64 116.53C203.18 116.53 204.11 117.57 204.11 119.28V119.54H200.25C200.31 120.63 200.82 121.24 201.69 121.24C202.37 121.24 202.85 120.92 203.03 120.26H204.15ZM201.64 117.42C200.87 117.42 200.41 117.91 200.28 118.81H203C202.87 117.91 202.4 117.42 201.64 117.42ZM206.031 118.07C206.031 119.43 209.441 118.29 209.441 120.46C209.441 121.47 208.531 122.13 207.241 122.13C205.951 122.13 205.041 121.53 204.841 120.26H205.911C206.021 120.93 206.521 121.3 207.271 121.3C207.991 121.3 208.371 120.98 208.371 120.53C208.371 119.2 205.011 120.32 205.011 118.13C205.011 117.3 205.661 116.53 207.011 116.53C208.201 116.53 209.081 117.08 209.251 118.41H208.181C208.061 117.66 207.641 117.38 206.961 117.38C206.371 117.38 206.031 117.67 206.031 118.07ZM210.416 116.01V114.8H211.486V116.01H210.416ZM210.416 122V116.67H211.486V122H210.416ZM214.699 122.03C213.339 122.03 212.519 120.99 212.519 119.29C212.519 117.51 213.359 116.53 214.699 116.53C215.379 116.53 215.889 116.77 216.229 117.23V116.67H217.299V122.17C217.299 123.63 216.329 124.34 215.049 124.34C213.769 124.34 212.849 123.74 212.659 122.5H213.729C213.829 123.14 214.339 123.48 215.039 123.48C215.749 123.48 216.229 123.11 216.229 122.19V121.29C215.869 121.78 215.349 122.03 214.699 122.03ZM214.919 121.13C215.769 121.13 216.229 120.48 216.229 119.28C216.229 118.11 215.749 117.43 214.919 117.43C214.069 117.43 213.609 118.08 213.609 119.29C213.609 120.46 214.079 121.13 214.919 121.13ZM218.599 122V116.67H219.669V117.38C220.029 116.81 220.589 116.53 221.279 116.53C222.389 116.53 223.079 117.18 223.079 118.44V122H222.019V118.66C222.019 117.89 221.679 117.42 220.949 117.42C220.149 117.42 219.669 118.13 219.669 118.87V122H218.599Z" fill="#F2F2F2"/>
<path d="M87.1236 32V25.2H88.6336L90.5536 29.91L90.7836 30.63L91.0136 29.91L92.9136 25.2H94.3836V32H93.2636L93.2936 26.49L92.8036 27.95L91.1536 32H90.3536L88.6936 27.94L88.2136 26.52L88.2436 32H87.1236ZM96.7743 28.41H95.7043C95.8743 27.23 96.6843 26.53 98.0143 26.53C99.4643 26.53 100.184 27.38 100.184 28.62V30.7C100.184 31.34 100.244 31.71 100.364 32H99.2443C99.1643 31.8 99.1343 31.52 99.1243 31.22C98.6743 31.85 97.9843 32.13 97.3443 32.13C96.2643 32.13 95.5243 31.62 95.5243 30.6C95.5243 29.87 95.9243 29.33 96.7243 29.06C97.4343 28.82 98.1543 28.76 99.1143 28.75V28.63C99.1143 27.85 98.7543 27.43 97.9343 27.43C97.2443 27.43 96.8743 27.81 96.7743 28.41ZM96.6043 30.56C96.6043 31.01 96.9743 31.29 97.5443 31.29C98.4343 31.29 99.1143 30.58 99.1143 29.72V29.48C97.0643 29.5 96.6043 29.95 96.6043 30.56ZM101.526 26.01V24.8H102.596V26.01H101.526ZM101.526 32V26.67H102.596V32H101.526ZM103.889 32V26.67H104.959V27.38C105.319 26.81 105.879 26.53 106.569 26.53C107.679 26.53 108.369 27.18 108.369 28.44V32H107.309V28.66C107.309 27.89 106.969 27.42 106.239 27.42C105.439 27.42 104.959 28.13 104.959 28.87V32H103.889ZM109.811 30.41V27.5H109.091V26.67H109.811V25.44H110.881V26.67H112.031V27.5H110.881V30.35C110.881 30.96 111.051 31.25 111.801 31.25H112.011V32.03C111.891 32.09 111.641 32.13 111.341 32.13C110.301 32.13 109.811 31.56 109.811 30.41ZM117.565 30.26C117.275 31.5 116.355 32.13 115.105 32.13C113.535 32.13 112.575 31.08 112.575 29.34C112.575 27.53 113.535 26.53 115.055 26.53C116.595 26.53 117.525 27.57 117.525 29.28V29.54H113.665C113.725 30.63 114.235 31.24 115.105 31.24C115.785 31.24 116.265 30.92 116.445 30.26H117.565ZM115.055 27.42C114.285 27.42 113.825 27.91 113.695 28.81H116.415C116.285 27.91 115.815 27.42 115.055 27.42ZM118.596 32V26.67H119.666V27.38C120.026 26.81 120.586 26.53 121.276 26.53C122.386 26.53 123.076 27.18 123.076 28.44V32H122.016V28.66C122.016 27.89 121.676 27.42 120.946 27.42C120.146 27.42 119.666 28.13 119.666 28.87V32H118.596ZM125.388 28.41H124.318C124.488 27.23 125.298 26.53 126.628 26.53C128.078 26.53 128.798 27.38 128.798 28.62V30.7C128.798 31.34 128.858 31.71 128.978 32H127.858C127.778 31.8 127.748 31.52 127.738 31.22C127.288 31.85 126.598 32.13 125.958 32.13C124.878 32.13 124.138 31.62 124.138 30.6C124.138 29.87 124.538 29.33 125.338 29.06C126.048 28.82 126.768 28.76 127.728 28.75V28.63C127.728 27.85 127.368 27.43 126.548 27.43C125.858 27.43 125.488 27.81 125.388 28.41ZM125.218 30.56C125.218 31.01 125.588 31.29 126.158 31.29C127.048 31.29 127.728 30.58 127.728 29.72V29.48C125.678 29.5 125.218 29.95 125.218 30.56ZM130.139 32V26.67H131.209V27.38C131.569 26.81 132.129 26.53 132.819 26.53C133.929 26.53 134.619 27.18 134.619 28.44V32H133.559V28.66C133.559 27.89 133.219 27.42 132.489 27.42C131.689 27.42 131.209 28.13 131.209 28.87V32H130.139ZM140.431 28.53H139.361C139.231 27.77 138.741 27.43 138.121 27.43C137.231 27.43 136.751 28.11 136.751 29.34C136.751 30.55 137.251 31.24 138.151 31.24C138.791 31.24 139.241 30.89 139.401 30.21H140.461C140.231 31.54 139.311 32.13 138.131 32.13C136.591 32.13 135.661 31.07 135.661 29.34C135.661 27.53 136.611 26.53 138.121 26.53C139.311 26.53 140.251 27.2 140.431 28.53ZM146.188 30.26C145.898 31.5 144.978 32.13 143.728 32.13C142.158 32.13 141.198 31.08 141.198 29.34C141.198 27.53 142.158 26.53 143.678 26.53C145.218 26.53 146.148 27.57 146.148 29.28V29.54H142.288C142.348 30.63 142.858 31.24 143.728 31.24C144.408 31.24 144.888 30.92 145.068 30.26H146.188ZM143.678 27.42C142.908 27.42 142.448 27.91 142.318 28.81H145.038C144.908 27.91 144.438 27.42 143.678 27.42Z" fill="#EBEBEB"/>
<path d="M87.188 208V201.2H89.518C91.648 201.2 92.968 202.48 92.968 204.61C92.968 206.74 91.648 208 89.518 208H87.188ZM89.518 207.09C90.968 207.09 91.828 206.17 91.828 204.61C91.828 203.03 90.968 202.11 89.518 202.11H88.308V207.09H89.518ZM98.8497 206.26C98.5597 207.5 97.6397 208.13 96.3897 208.13C94.8197 208.13 93.8597 207.08 93.8597 205.34C93.8597 203.53 94.8197 202.53 96.3397 202.53C97.8797 202.53 98.8097 203.57 98.8097 205.28V205.54H94.9497C95.0097 206.63 95.5197 207.24 96.3897 207.24C97.0697 207.24 97.5497 206.92 97.7297 206.26H98.8497ZM96.3397 203.42C95.5697 203.42 95.1097 203.91 94.9797 204.81H97.6997C97.5697 203.91 97.0997 203.42 96.3397 203.42ZM101.114 208L99.1543 202.67H100.304L101.674 206.63L101.804 207.14L101.934 206.63L103.294 202.67H104.384L102.424 208H101.114ZM109.777 206.26C109.487 207.5 108.567 208.13 107.317 208.13C105.747 208.13 104.787 207.08 104.787 205.34C104.787 203.53 105.747 202.53 107.267 202.53C108.807 202.53 109.737 203.57 109.737 205.28V205.54H105.877C105.937 206.63 106.447 207.24 107.317 207.24C107.997 207.24 108.477 206.92 108.657 206.26H109.777ZM107.267 203.42C106.497 203.42 106.037 203.91 105.907 204.81H108.627C108.497 203.91 108.027 203.42 107.267 203.42ZM110.809 208V200.8H111.879V208H110.809ZM115.402 208.13C113.852 208.13 112.912 207.08 112.912 205.34C112.912 203.53 113.882 202.53 115.402 202.53C116.952 202.53 117.892 203.6 117.892 205.34C117.892 207.14 116.922 208.13 115.402 208.13ZM115.402 207.23C116.312 207.23 116.802 206.57 116.802 205.34C116.802 204.12 116.302 203.43 115.402 203.43C114.502 203.43 114.002 204.1 114.002 205.34C114.002 206.55 114.502 207.23 115.402 207.23ZM120.004 210.2H118.934V202.67H120.004V203.31C120.344 202.81 120.844 202.53 121.454 202.53C122.864 202.53 123.714 203.58 123.714 205.32C123.714 207.13 122.844 208.13 121.454 208.13C120.844 208.13 120.344 207.88 120.004 207.39V210.2ZM121.324 203.43C120.464 203.43 120.004 204.1 120.004 205.32C120.004 206.54 120.484 207.23 121.324 207.23C122.164 207.23 122.624 206.55 122.624 205.32C122.624 204.11 122.144 203.43 121.324 203.43ZM124.754 208V202.67H125.824V203.35C126.164 202.8 126.694 202.53 127.324 202.53C128.034 202.53 128.564 202.84 128.824 203.45C129.174 202.84 129.754 202.53 130.454 202.53C131.504 202.53 132.184 203.18 132.184 204.44V208H131.114V204.66C131.114 203.89 130.824 203.42 130.164 203.42C129.444 203.42 129.004 204.13 129.004 204.87V208H127.934V204.66C127.934 203.89 127.634 203.42 126.984 203.42C126.264 203.42 125.824 204.13 125.824 204.87V208H124.754ZM138.215 206.26C137.925 207.5 137.005 208.13 135.755 208.13C134.185 208.13 133.225 207.08 133.225 205.34C133.225 203.53 134.185 202.53 135.705 202.53C137.245 202.53 138.175 203.57 138.175 205.28V205.54H134.315C134.375 206.63 134.885 207.24 135.755 207.24C136.435 207.24 136.915 206.92 137.095 206.26H138.215ZM135.705 203.42C134.935 203.42 134.475 203.91 134.345 204.81H137.065C136.935 203.91 136.465 203.42 135.705 203.42ZM139.247 208V202.67H140.317V203.38C140.677 202.81 141.237 202.53 141.927 202.53C143.037 202.53 143.727 203.18 143.727 204.44V208H142.667V204.66C142.667 203.89 142.327 203.42 141.597 203.42C140.797 203.42 140.317 204.13 140.317 204.87V208H139.247ZM145.168 206.41V203.5H144.448V202.67H145.168V201.44H146.238V202.67H147.388V203.5H146.238V206.35C146.238 206.96 146.408 207.25 147.158 207.25H147.368V208.03C147.248 208.09 146.998 208.13 146.698 208.13C145.658 208.13 145.168 207.56 145.168 206.41Z" fill="#EEEEEE"/>
</svg>
